<?xml version="1.0" encoding="UTF-8" standalone="no"?>
<!-- Created with Inkscape (http://www.inkscape.org/) -->

<svg
   xmlns:dc="http://purl.org/dc/elements/1.1/"
   xmlns:cc="http://creativecommons.org/ns#"
   xmlns:rdf="http://www.w3.org/1999/02/22-rdf-syntax-ns#"
   xmlns:svg="http://www.w3.org/2000/svg"
   xmlns="http://www.w3.org/2000/svg"
   xmlns:sodipodi="http://sodipodi.sourceforge.net/DTD/sodipodi-0.dtd"
   xmlns:inkscape="http://www.inkscape.org/namespaces/inkscape"
   id="svg3065"
   version="1.1"
   inkscape:version="0.91 r13725"
   viewBox="0 0 5561.5578 1245.4774"
   preserveAspectRatio="xMidYMid"
   xml:space="preserve"
   sodipodi:docname="KodiPassion-titleside.svg"
   ><metadata
     id="metadata3071"><rdf:RDF><cc:Work
         rdf:about=""><dc:format>image/svg+xml</dc:format><dc:type
           rdf:resource="http://purl.org/dc/dcmitype/StillImage" /><dc:title></dc:title></cc:Work></rdf:RDF></metadata><defs
     id="defs3069" /><sodipodi:namedview
     pagecolor="#ffffff"
     bordercolor="#666666"
     borderopacity="1"
     objecttolerance="10"
     gridtolerance="10"
     guidetolerance="10"
     inkscape:pageopacity="0"
     inkscape:pageshadow="2"
     inkscape:window-width="1920"
     inkscape:window-height="1017"
     id="namedview3067"
     showgrid="false"
     inkscape:zoom="0.2"
     inkscape:cx="3582.897"
     inkscape:cy="502.41154"
     inkscape:window-x="-8"
     inkscape:window-y="-8"
     inkscape:window-maximized="1"
     inkscape:current-layer="svg3065"
     fit-margin-top="0"
     fit-margin-left="0"
     fit-margin-right="0"
     fit-margin-bottom="0" /><g
     id="g3075"
     transform="translate(-127.4266,-250.5)"><path
       style="fill:#31afe1"
       d="m 740.4788,1492.7083 c -3.31166,-1.7855 -7.58666,-4.3195 -9.5,-5.6312 -4.44083,-3.0445 -199.02928,-197.0735 -207.63454,-207.0376 -3.5437,-4.1033 -8.10836,-10.83 -10.14368,-14.9482 -3.48657,-7.0545 -3.70058,-8.04 -3.70058,-17.0394 0,-8.6994 0.28964,-10.1635 3.24538,-16.4043 1.78496,-3.7688 5.46814,-9.6188 8.18485,-13 2.71671,-3.3812 50.30629,-51.4461 105.75462,-106.811 73.63681,-73.5259 102.55485,-101.7734 107.26837,-104.7811 8.94804,-5.7097 15.31071,-7.38314 26.10901,-6.8669 7.64176,0.3654 9.75859,0.9054 16.59828,4.2342 7.70925,3.752 9.57824,5.5535 112.50339,108.4463 108.00453,107.9705 110.45289,110.5892 114.4787,122.444 2.3123,6.8088 2.3123,18.565 0,25.3738 -3.98598,11.7375 -6.86318,14.8298 -109.4914,117.6754 C 839.34304,1433.2866 791.125,1480.9437 787,1484.267 c -4.125,3.3233 -10.2,7.3224 -13.5,8.8869 -5.4236,2.5713 -7.00871,2.8424 -16.5,2.8226 -9.92018,-0.021 -10.8325,-0.2012 -16.5212,-3.2682 z m 377.4983,-371.9841 c -3.5876,-1.2233 -9.4376,-4.3276 -13,-6.8985 C 1095.689,1107.1228 894.11085,904.98642 889.74746,898 c -5.6066,-8.97699 -7.24771,-14.43111 -7.24541,-24.07952 0.002,-8.10051 0.24598,-9.07757 4.37118,-17.5 L 891.24236,847.5 995.87118,742.70159 c 58.79292,-58.88826 106.99452,-106.37758 110.02902,-108.40314 14.8226,-9.89436 29.821,-10.7242 45.5998,-2.52298 3.7768,1.96303 30.4013,27.93487 108.8296,106.16167 57.1062,56.95957 105.8497,106.15644 108.3188,109.32636 2.4691,3.16993 5.8083,8.67255 7.4204,12.22805 2.5383,5.59796 2.9312,7.65841 2.9312,15.3707 0,8.3712 -0.237,9.37959 -3.945,16.78805 -5.6313,11.25092 -14.6697,20.72209 -121.1928,126.9953 -66.4541,66.2982 -94.1653,93.301 -98.7901,96.2647 -12.4663,7.9889 -24.9694,9.9485 -37.095,5.8139 z M 343,1104.4621 C 340.75438,1103.4756 302.76467,1066.0086 237,999.92064 120.73883,883.08789 127.5,890.795 127.5,875.10082 c 0,-14.87735 -0.92202,-13.71484 57.97842,-73.10082 28.09342,-28.325 74.72081,-75.39423 103.61644,-104.59828 37.06179,-37.45739 53.32805,-53.24941 55.22132,-53.61133 1.4761,-0.28218 3.85412,-0.28933 5.28449,-0.0159 4.02346,0.76914 10.0039,7.10185 11.54543,12.22551 1.1203,3.72356 1.3539,41.42405 1.3539,218.5 l 0,214 -2.25288,5.5657 c -3.96887,9.8049 -10.13401,13.5212 -17.24712,10.3964 z M 530,977.29377 c -2.3318,-0.8524 -6.0461,-4.51714 -7.59456,-7.49323 -4.43062,-8.5155 -4.28245,-0.12937 -4.41785,-250.03873 C 517.84604,458.51001 517.34364,479.1314 524.19435,465 c 2.8789,-5.93849 11.49408,-14.86663 99.72838,-103.35112 53.1175,-53.26812 99.16026,-98.85345 102.31725,-101.30074 3.15699,-2.44729 8.33199,-5.66428 11.5,-7.14888 C 742.90336,250.7796 744.6394,250.5 754.5,250.5 c 10.54677,0 11.28355,0.14224 17.88189,3.45221 3.99812,2.0056 10.70271,6.85674 16,11.57689 16.11025,14.35502 202.93013,203.25378 206.74349,209.04408 9.99232,15.1726 9.75332,31.95097 -0.68548,48.10563 -5.29145,8.18887 -445.02722,448.36198 -451.9399,452.38937 -4.68611,2.73017 -9.01248,3.50047 -12.5,2.22559 z"
       id="path3089"
       inkscape:connector-curvature="0"
       sodipodi:nodetypes="cssssssssssssssssccssssscssssscsssssssssssssscssssssssssssssss" /><path
       style="fill:#FFFFFF"
       d="m 1217.1629,1296.25 0.1629,-71.75 83.3371,-82.9933 83.3371,-82.9932 0,154.7432 0,154.7433 -83.5,0 -83.5,0 z M 1446,997.23707 c 0,-0.41962 6.5556,-7.28212 14.568,-15.25 16.172,-16.08223 22.5191,-23.56705 27.5488,-32.48707 l 3.3832,-6 0.5,-46 0.5,-46 33.5,-0.60064 c 33.3811,-0.5985 40.0428,-1.18597 55.8109,-4.92177 30.6802,-7.26877 55.9671,-22.30463 72.2265,-42.94669 22.8744,-29.04017 31.947,-61.71075 31.9439,-115.0309 0,-33.02821 -2.8216,-54.1188 -10.0614,-75.25593 -6.7452,-19.69287 -16.4883,-35.521 -30.3311,-49.2739 -14.0205,-13.9295 -29.2434,-23.08827 -49.6319,-29.86065 -26.9386,-8.94811 -35.6068,-9.58753 -130.1355,-9.59953 -70.2013,-0.009 -78.8479,0.15932 -80.25,1.56144 -1.4029,1.40292 -1.5714,10.32947 -1.5714,83.24327 l 0,81.67184 -83.3371,-82.99327 -83.3371,-82.99327 -0.1629,-73.2934 -0.1629,-73.2934 178.75,0.36747 c 160.0758,0.32908 180.2126,0.54385 192.75,2.05577 42.4367,5.11759 68.0369,10.45269 96,20.00646 40.2537,13.75295 71.0664,32.34663 97.8716,59.05995 41.4646,41.32235 63.9994,94.21159 72.2612,169.59715 1.3313,12.14786 1.699,24.7995 1.7,58.5 0,37.92598 -0.2588,45.24201 -2.2035,62 -8.8141,75.95393 -32.7394,129.67399 -76.0072,170.66139 -51.035,48.34518 -123.7746,73.13461 -225.4303,76.82596 C 1520.5177,998.15566 1446,998.33008 1446,997.23707 Z"
       id="path3077"
       inkscape:connector-curvature="0"
       sodipodi:nodetypes="cccccccccssscccssscsssssscccccssssscssss" /></g><g
     style="font-style:normal;font-variant:normal;font-weight:bold;font-stretch:normal;font-size:40px;line-height:125%;font-family:'Cooper Hewitt';-inkscape-font-specification:'Cooper Hewitt Bold';letter-spacing:0px;word-spacing:0px;fill:#FFFFFF;fill-opacity:1;stroke:none;stroke-width:1px;stroke-linecap:butt;stroke-linejoin:miter;stroke-opacity:1"
     id="text3470"
     transform="translate(-1.6110175e-6,-2.52258)"><path
       d="M 2405.7349,888 2237.9187,699.58447 q -4.6692,-5.2185 -6.5918,-9.06372 l -1.0986,0 0,197.47925 -27.1912,0 0,-393.85986 27.1912,0 0,185.66894 1.0986,0 q 3.2959,-5.76782 7.1411,-9.61304 l 159.3018,-176.0559 35.4309,0 -172.76,190.88745 L 2443.9124,888 l -38.1775,0 z"
       style="font-style:normal;font-variant:normal;font-weight:300;font-stretch:normal;font-size:562.5px;font-family:'Segoe UI';-inkscape-font-specification:'Segoe UI Light'"
       id="path3521"
       inkscape:connector-curvature="0" /><path
       d="m 2624.3628,894.86646 q -83.4961,0 -133.2092,-55.48096 -49.4385,-55.48096 -49.4385,-144.19556 0,-94.20776 50.8118,-150.78735 51.0864,-56.85425 139.2517,-56.85425 79.6508,0 128.8147,54.65698 49.4384,54.38233 49.4384,142.82227 0,97.77832 -50.5371,153.80859 -50.5371,56.03028 -135.1318,56.03028 z m 2.7466,-382.59888 q -68.6646,0 -113.1592,49.71313 -44.22,49.71314 -44.22,130.18799 0,81.29883 42.0227,129.63867 42.0227,48.06519 112.0606,48.06519 73.0591,0 115.6311,-47.51587 42.572,-47.79053 42.572,-132.93457 0,-83.49609 -41.748,-130.18799 -41.4734,-46.96655 -113.1592,-46.96655 z"
       style="font-style:normal;font-variant:normal;font-weight:300;font-stretch:normal;font-size:562.5px;font-family:'Segoe UI';-inkscape-font-specification:'Segoe UI Light'"
       id="path3523"
       inkscape:connector-curvature="0" /><path
       d="m 2890.7813,888 0,-393.85986 98.6022,0 q 98.053,0 149.1394,48.88916 51.0865,48.88916 51.0865,142.5476 0,90.08789 -54.9317,146.39283 Q 3080.0208,888 2983.6157,888 l -92.8344,0 z m 27.1911,-368.86597 0,344.14673 61.7981,0 q 87.616,0 134.5825,-45.3186 46.9666,-45.59326 46.9666,-131.28662 0,-167.54151 -176.0559,-167.54151 l -67.2913,0 z"
       style="font-style:normal;font-variant:normal;font-weight:300;font-stretch:normal;font-size:562.5px;font-family:'Segoe UI';-inkscape-font-specification:'Segoe UI Light'"
       id="path3525"
       inkscape:connector-curvature="0" /><path
       d="m 3269.8096,888 0,-393.85986 27.1911,0 0,393.85986 -27.1911,0 z"
       style="font-style:normal;font-variant:normal;font-weight:300;font-stretch:normal;font-size:562.5px;font-family:'Segoe UI';-inkscape-font-specification:'Segoe UI Light'"
       id="path3527"
       inkscape:connector-curvature="0" /><path
       d="m 3579.3494,730.07153 0,157.92847 -27.1912,0 0,-393.85986 95.0317,0 q 60.6995,0 92.8345,28.28979 32.135,28.01514 32.135,82.1228 0,54.93164 -35.9802,90.36255 -35.7056,35.15625 -100.2502,35.15625 l -56.5796,0 z m 0,-210.9375 0,185.94361 56.0302,0 q 53.2837,0 81.0242,-25.26856 27.7405,-25.54321 27.7405,-71.96045 0,-88.7146 -101.8982,-88.7146 l -62.8967,0 z"
       style="font-style:normal;font-variant:normal;font-weight:300;font-stretch:normal;font-size:562.5px;font-family:'Segoe UI';-inkscape-font-specification:'Segoe UI Light'"
       id="path3529"
       inkscape:connector-curvature="0" /><path
       d="m 4049.2896,888 -45.044,-122.49756 -170.8374,0 L 3788.3643,888 l -29.9378,0 148.5901,-393.85986 25.8179,0 L 4079.7766,888 l -30.487,0 z M 3928.4399,558.41016 q -3.0212,-8.23975 -4.9438,-16.20484 -1.9226,-6.86645 -4.1199,-13.73291 l -1.0986,0 q -4.6692,18.12744 -9.0637,29.38843 l -66.1927,182.6477 151.886,0 -66.4673,-182.09838 z"
       style="font-style:normal;font-variant:normal;font-weight:300;font-stretch:normal;font-size:562.5px;font-family:'Segoe UI';-inkscape-font-specification:'Segoe UI Light'"
       id="path3531"
       inkscape:connector-curvature="0" /><path
       d="m 4134.1589,873.99243 0,-31.03638 q 42.2974,26.91651 85.6934,26.91651 46.1426,0 70.0378,-18.95142 23.8953,-19.22607 23.8953,-53.55835 0,-30.2124 -16.2048,-48.06518 -15.9302,-18.12744 -69.4886,-49.16382 -59.8754,-34.88159 -75.8056,-58.22754 -15.9302,-23.62061 -15.9302,-54.38232 0,-41.74805 32.4097,-70.86182 32.4096,-29.11377 86.5173,-29.11377 35.1563,0 70.3125,11.8103 l 0,28.56446 q -34.6069,-15.65552 -73.8831,-15.65552 -40.1001,0 -63.7207,20.32471 -23.3459,20.3247 -23.3459,51.63574 0,30.2124 15.9302,48.06518 16.2048,17.85279 69.4885,48.6145 55.2063,31.31104 73.3337,55.75562 18.4021,24.16992 18.4021,55.75562 0,45.3186 -31.5857,73.88305 -31.311,28.56446 -88.7146,28.56446 -20.3247,0 -46.9665,-6.31714 -26.3672,-6.31714 -40.3748,-14.55689 z"
       style="font-style:normal;font-variant:normal;font-weight:300;font-stretch:normal;font-size:562.5px;font-family:'Segoe UI';-inkscape-font-specification:'Segoe UI Light'"
       id="path3533"
       inkscape:connector-curvature="0" /><path
       d="m 4414.3103,873.99243 0,-31.03638 q 42.2974,26.91651 85.6934,26.91651 46.1425,0 70.0378,-18.95142 23.8953,-19.22607 23.8953,-53.55835 0,-30.2124 -16.2049,-48.06518 -15.9301,-18.12744 -69.4885,-49.16382 -59.8755,-34.88159 -75.8057,-58.22754 -15.9301,-23.62061 -15.9301,-54.38232 0,-41.74805 32.4096,-70.86182 32.4097,-29.11377 86.5174,-29.11377 35.1562,0 70.3125,11.8103 l 0,28.56446 q -34.607,-15.65552 -73.8831,-15.65552 -40.1001,0 -63.7207,20.32471 -23.3459,20.3247 -23.3459,51.63574 0,30.2124 15.9301,48.06518 16.2049,17.85279 69.4886,48.6145 55.2063,31.31104 73.3337,55.75562 18.4021,24.16992 18.4021,55.75562 0,45.3186 -31.5857,73.88305 -31.311,28.56446 -88.7146,28.56446 -20.3247,0 -46.9665,-6.31714 -26.3672,-6.31714 -40.3748,-14.55689 z"
       style="font-style:normal;font-variant:normal;font-weight:300;font-stretch:normal;font-size:562.5px;font-family:'Segoe UI';-inkscape-font-specification:'Segoe UI Light'"
       id="path3535"
       inkscape:connector-curvature="0" /><path
       d="m 4706.8213,888 0,-393.85986 27.1912,0 0,393.85986 -27.1912,0 z"
       style="font-style:normal;font-variant:normal;font-weight:300;font-stretch:normal;font-size:562.5px;font-family:'Segoe UI';-inkscape-font-specification:'Segoe UI Light'"
       id="path3537"
       inkscape:connector-curvature="0" /><path
       d="m 4997.4097,894.86646 q -83.4961,0 -133.2093,-55.48096 -49.4384,-55.48096 -49.4384,-144.19556 0,-94.20776 50.8117,-150.78735 51.0865,-56.85425 139.2517,-56.85425 79.6509,0 128.8147,54.65698 49.4385,54.38233 49.4385,142.82227 0,97.77832 -50.5371,153.80859 -50.5371,56.03028 -135.1318,56.03028 z m 2.7465,-382.59888 q -68.6645,0 -113.1591,49.71313 -44.22,49.71314 -44.22,130.18799 0,81.29883 42.0227,129.63867 42.0227,48.06519 112.0606,48.06519 73.059,0 115.6311,-47.51587 42.572,-47.79053 42.572,-132.93457 0,-83.49609 -41.7481,-130.18799 -41.4734,-46.96655 -113.1592,-46.96655 z"
       style="font-style:normal;font-variant:normal;font-weight:300;font-stretch:normal;font-size:562.5px;font-family:'Segoe UI';-inkscape-font-specification:'Segoe UI Light'"
       id="path3539"
       inkscape:connector-curvature="0" /><path
       d="M 5542.3315,888 5307.7734,569.67114 q -7.1411,-9.61303 -12.6342,-19.22607 l -3.5706,-5.49317 -1.0986,0 q 0.5493,7.14112 0.5493,17.30347 l 0,325.74463 -27.1912,0 0,-393.85986 20.874,0 232.9102,315.58227 q 7.6904,10.43701 16.7542,25.26856 l 1.3732,0 q -1.3732,-19.22608 -1.3732,-32.95899 l 0,-307.89184 27.1911,0 0,393.85986 -19.2261,0 z"
       style="font-style:normal;font-variant:normal;font-weight:300;font-stretch:normal;font-size:562.5px;font-family:'Segoe UI';-inkscape-font-specification:'Segoe UI Light'"
       id="path3541"
       inkscape:connector-curvature="0" /></g></svg>