<?xml version="1.0" encoding="iso-8859-1"?>
<!-- Generator: Adobe Illustrator 18.0.0, SVG Export Plug-In . SVG Version: 6.00 Build 0)  -->
<!DOCTYPE svg PUBLIC "-//W3C//DTD SVG 1.1//EN" "http://www.w3.org/Graphics/SVG/1.1/DTD/svg11.dtd">
<svg version="1.1" id="Capa_1" xmlns="http://www.w3.org/2000/svg" xmlns:xlink="http://www.w3.org/1999/xlink"
	 viewBox="0 0 32 32" xml:space="preserve">
<g id="_x36__3_">
	<g>
		<path d="M28,12h-8V4c0-2.209-1.791-4-4-4c-2.209,0-4,1.791-4,4v8H4
			c-2.209,0-4,1.791-4,4c0,2.209,1.791,4,4,4h8v8c0,2.209,1.791,4,4,4c2.209,0,4-1.791,4-4v-8h8c2.209,0,4-1.791,4-4
			C32,13.791,30.209,12,28,12z M28,18H18v10c0,1.105-0.895,2-2,2s-2-0.895-2-2V18H4c-1.105,0-2-0.895-2-2c0-1.105,0.895-2,2-2h10V4
			c0-1.105,0.895-2,2-2s2,0.896,2,2v10h10c1.105,0,2,0.895,2,2C30,17.105,29.105,18,28,18z"/>
	</g>
</g>
</svg>
