<?xml version="1.0" encoding="UTF-8" standalone="no"?>
<!-- Generator: Adobe Illustrator 18.0.0, SVG Export Plug-In . SVG Version: 6.00 Build 0)  -->

<svg
   xmlns="http://www.w3.org/2000/svg"
   version="1.1"
   viewBox="0 0 32 32"
   >
<g
   id="_x31_0_2_">
	<g
   id="g3177">
		<path
   style="fill-rule:evenodd"
   d="m 21.717,10.283 c -0.394,-0.394 -1.032,-0.394 -1.425,0 l -4.297,4.297 -4.237,-4.237 c -0.391,-0.391 -1.024,-0.391 -1.414,0 -0.391,0.391 -0.391,1.024 0,1.414 l 4.237,4.237 -4.266,4.266 c -0.394,0.394 -0.394,1.032 0,1.425 0.394,0.393 1.032,0.393 1.425,0 l 4.266,-4.266 4.237,4.237 c 0.391,0.391 1.024,0.391 1.414,0 0.391,-0.391 0.391,-1.024 0,-1.414 l -4.237,-4.237 4.297,-4.297 c 0.394,-0.393 0.394,-1.032 0,-1.425 z"
   id="path3179"
   />
	</g>
</g>
</svg>