<?xml version="1.0" encoding="iso-8859-1"?>
<!-- Generator: Adobe Illustrator 18.0.0, SVG Export Plug-In . SVG Version: 6.00 Build 0)  -->
<!DOCTYPE svg PUBLIC "-//W3C//DTD SVG 1.1//EN" "http://www.w3.org/Graphics/SVG/1.1/DTD/svg11.dtd">
<svg version="1.1" id="Capa_1" xmlns="http://www.w3.org/2000/svg" xmlns:xlink="http://www.w3.org/1999/xlink"
	 viewBox="0 0 32 32" xml:space="preserve">
<g id="_x33__10_">
	<g>
		<path d="M16,0C7.163,0,0,7.163,0,16c0,8.836,7.163,16,16,16s16-7.163,16-16
			C32,7.163,24.837,0,16,0z M27.596,8.171c1.34,1.974,2.187,4.308,2.366,6.829h-8.005c-0.05-1.859-0.206-3.675-0.502-5.408
			C23.622,9.284,25.681,8.808,27.596,8.171z M26.219,6.446c-1.633,0.516-3.357,0.91-5.154,1.175c-0.42-1.832-0.964-3.571-1.63-5.179
			C22.073,3.109,24.414,4.523,26.219,6.446z M12.047,15c0.053-1.761,0.213-3.493,0.515-5.157C13.686,9.942,14.832,10,16,10
			s2.314-0.058,3.439-0.157C19.74,11.507,19.9,13.239,19.953,15H12.047z M19.953,17c-0.053,1.761-0.213,3.493-0.515,5.157
			C18.314,22.058,17.168,22,16,22s-2.314,0.058-3.439,0.157C12.26,20.493,12.1,18.76,12.047,17H19.953z M15.029,2.049
			C15.351,2.027,15.672,2,16,2s0.649,0.027,0.971,0.049c0.852,1.773,1.54,3.744,2.051,5.837C18.027,7.972,17.02,8.025,16,8.025
			s-2.027-0.052-3.022-0.139C13.489,5.793,14.178,3.821,15.029,2.049z M12.566,2.442c-0.666,1.608-1.211,3.347-1.63,5.179
			C9.138,7.356,7.414,6.962,5.781,6.446C7.586,4.523,9.927,3.109,12.566,2.442z M4.404,8.171c1.915,0.637,3.974,1.114,6.141,1.421
			c-0.295,1.733-0.452,3.549-0.502,5.408H2.038C2.217,12.479,3.064,10.145,4.404,8.171z M4.404,23.829
			C3.064,21.855,2.217,19.521,2.038,17h8.005c0.05,1.859,0.206,3.675,0.502,5.408C8.378,22.715,6.319,23.192,4.404,23.829z
			 M5.781,25.553c1.633-0.516,3.357-0.91,5.154-1.174c0.42,1.832,0.964,3.571,1.63,5.179C9.927,28.891,7.586,27.476,5.781,25.553z
			 M16.971,29.951C16.649,29.973,16.328,30,16,30s-0.649-0.027-0.971-0.049c-0.851-1.772-1.54-3.744-2.051-5.837
			c0.995-0.087,2.002-0.139,3.022-0.139s2.027,0.052,3.022,0.139C18.511,26.206,17.822,28.178,16.971,29.951z M19.434,29.558
			c0.666-1.608,1.211-3.347,1.63-5.179c1.798,0.265,3.522,0.659,5.154,1.174C24.414,27.476,22.073,28.891,19.434,29.558z
			 M27.596,23.829c-1.915-0.637-3.974-1.114-6.141-1.421c0.295-1.733,0.452-3.549,0.502-5.408h8.005
			C29.783,19.521,28.936,21.855,27.596,23.829z"/>
	</g>
</g>
</svg>
