<?xml version="1.0" encoding="iso-8859-1"?>
<!-- Generator: Adobe Illustrator 18.0.0, SVG Export Plug-In . SVG Version: 6.00 Build 0)  -->
<!DOCTYPE svg PUBLIC "-//W3C//DTD SVG 1.1//EN" "http://www.w3.org/Graphics/SVG/1.1/DTD/svg11.dtd">
<svg version="1.1" id="Capa_1" xmlns="http://www.w3.org/2000/svg" xmlns:xlink="http://www.w3.org/1999/xlink" x="0px" y="0px"
	 viewBox="0 0 95.437 93.365" style="enable-background:new 0 0 95.437 93.365;" xml:space="preserve">
<g>
	<path d="M69.702,70.36h-9.14c-1.172-6.51-3.381-12.56-6.703-18.04c-4.084-6.75-9.139-12.13-15.375-15.94
		c-1.127-0.69-2.238-0.5-3.14,0.47c-0.928,1-1.032,2.11-0.329,3.28c0.188,0.19,1.18,1.78,2.813,5.48
		c0.804,1.83,1.572,3.85,2.297,6.05c0.729,2.21,1.383,4.83,1.922,7.87c0.539,3.06,0.843,6.1,0.843,9.1v1.73h-8.812
		c-1.078,0-1.875,0.56-2.391,1.64c-0.14,0.38-0.187,0.71-0.187,0.94c0,0.7,0.236,1.31,0.75,1.83l17.765,17.86
		c0.982,0.98,2.672,0.98,3.656,0l17.86-17.86c0.751-0.75,0.992-1.65,0.562-2.77C71.679,70.92,70.874,70.36,69.702,70.36z
		 M51.843,87.14L40.312,75.57h5.016c1.453,0,2.418-0.99,2.578-2.35c0.121-1.03,0.187-2.58,0.187-4.59
		c0-6.61-1.171-13.36-3.468-20.16c6.187,7.27,9.883,15.56,11.156,24.85c0.18,1.31,1.265,2.25,2.578,2.25h5.109L51.843,87.14z"/>
	<path d="M92.53,31.27c-1.922-3.52-4.5-6.33-7.781-8.34c-0.797-5.86-3.199-10.92-7.172-15.15C72.878,2.78,66.515,0,59.906,0
		c-5.297,0-10.125,1.6-14.391,4.78c-4.265,3.19-7.312,7.36-9.14,12.47c-0.985-0.14-1.781-0.18-2.297-0.18
		c-3.656,0-6.947,1.11-9.844,3.42c-2.868,2.28-4.828,5.2-5.906,8.76h-1.031c-4.734,0-8.813,1.78-12.234,5.39
		C1.687,38.21,0,42.52,0,47.53c0,4.46,1.345,8.41,4.125,11.86c2.798,3.48,6.328,5.53,10.547,6.19c0.516,0.14,1.266,0.19,2.297,0.19
		h17.109v-5.2H16.969c-0.61,0-1.079-0.05-1.406-0.1c-2.954-0.46-5.438-1.92-7.407-4.36c-1.968-2.44-2.953-5.29-2.953-8.58
		c0-3.61,1.172-6.65,3.563-9.23c2.39-2.58,5.203-3.84,8.531-3.84c1.828,0,3.703,0.51,5.625,1.54c-0.047-0.33-0.094-0.84-0.094-1.54
		c0-3.33,1.078-6.19,3.281-8.58c2.203-2.39,4.828-3.61,7.969-3.61c2.203,0,4.219,0.66,5.953,1.92c0.609-5.39,2.813-9.94,6.562-13.55
		c3.798-3.65,8.203-5.48,13.313-5.48c5.39,0,10.031,2.06,13.921,6.14c3.891,4.08,5.86,9.05,5.953,14.91
		c3.141,1.31,5.615,3.47,7.547,6.46c1.911,2.96,2.906,6.33,2.906,10.04c0,4.54-1.315,8.48-3.984,11.86
		c-2.628,3.32-5.952,5.3-10.031,5.9c-0.374,0.06-1.078,0.1-2.109,0.1h-8.438v5.2h8.438c1.547,0,2.578-0.05,3.093-0.19
		c5.297-0.84,9.671-3.41,13.125-7.78c3.437-4.35,5.11-9.42,5.11-15.09C95.437,38.63,94.452,34.78,92.53,31.27z"/>
</g>
<g>
</g>
<g>
</g>
<g>
</g>
<g>
</g>
<g>
</g>
<g>
</g>
<g>
</g>
<g>
</g>
<g>
</g>
<g>
</g>
<g>
</g>
<g>
</g>
<g>
</g>
<g>
</g>
<g>
</g>
</svg>
