<?xml version="1.0" encoding="iso-8859-1"?>
<!-- Generator: Adobe Illustrator 18.0.0, SVG Export Plug-In . SVG Version: 6.00 Build 0)  -->
<!DOCTYPE svg PUBLIC "-//W3C//DTD SVG 1.1//EN" "http://www.w3.org/Graphics/SVG/1.1/DTD/svg11.dtd">
<svg version="1.1" id="Capa_1" xmlns="http://www.w3.org/2000/svg" xmlns:xlink="http://www.w3.org/1999/xlink"
	 viewBox="0 0 10 31.973" xml:space="preserve">
<g id="_x31_0_21_">
	<g>
		<path d="M10,2c0-1.221-0.79-2-2-2H2C0.79,0,0,0.779,0,2l0,22.213l4,7.062
			c0.604,0.931,1.396,0.931,2,0l4-7.062L10,2z M5,29.257L2,24h6L5,29.257z M8,22c-2.054-0.001-5.418,0-6,0V9h6V22z M8,7H2V3
			C1.969,2.011,2.02,1.968,3,2h4c0.981,0.007,1.004-0.033,1,1V7z"/>
	</g>
</g>
</svg>
