<?xml version="1.0" encoding="iso-8859-1"?>
<!-- Generator: Adobe Illustrator 18.0.0, SVG Export Plug-In . SVG Version: 6.00 Build 0)  -->
<!DOCTYPE svg PUBLIC "-//W3C//DTD SVG 1.1//EN" "http://www.w3.org/Graphics/SVG/1.1/DTD/svg11.dtd">
<svg version="1.1" id="Capa_1" xmlns="http://www.w3.org/2000/svg" xmlns:xlink="http://www.w3.org/1999/xlink" x="0px" y="0px"
	 viewBox="-3 -3 32 32" style="enable-background:new 0 0 28.034 26.059;" xml:space="preserve">
<g id="_x32__11_">
	<g>
		<path style="fill-rule:evenodd;clip-rule:evenodd;" d="M2.014,22.054h24.004c2.358,0,2.279-1.387,1.611-2.421L15.44,0.613
			c-0.558-0.783-2.22-0.851-2.88,0L0.372,19.633C-0.233,20.761-0.313,22.054,2.014,22.054z M14,2.754l11.2,17.295H2.8L14,2.754z
			 M27,24.056H1c-0.552,0-1,0.448-1,1.001c0,0.553,0.448,1.001,1,1.001h26c0.552,0,1-0.448,1-1.001
			C28,24.505,27.552,24.056,27,24.056z"/>
	</g>
</g>
</svg>
