<?xml version="1.0" encoding="iso-8859-1"?>
<!-- Generator: Adobe Illustrator 18.0.0, SVG Export Plug-In . SVG Version: 6.00 Build 0)  -->
<!DOCTYPE svg PUBLIC "-//W3C//DTD SVG 1.1//EN" "http://www.w3.org/Graphics/SVG/1.1/DTD/svg11.dtd">
<svg version="1.1" id="Capa_1" xmlns="http://www.w3.org/2000/svg" xmlns:xlink="http://www.w3.org/1999/xlink"
	 viewBox="0 0 26 32.005" xml:space="preserve">
<g id="_x32__21_">
	<g>
		<path style="fill-rule:evenodd;clip-rule:evenodd;" d="M18,0.005v0.029c-0.129,0-0.661-0.05-2-0.029H4c-2.209,0-4,1.791-4,4v24
			c0,2.209,1.791,4,4,4h18c2.209,0,4-1.791,4-4v-20L18,0.005z M24,28.005c0,1.104-0.895,2-2,2H4c-1.105,0-2-0.896-2-2v-24
			c0-1.105,0.895-2,2-2h11.972c-0.018,2.395,0.028,4,0.028,4c0,2.209,1.791,4,4,4c0,0,1.671,0,4,0V28.005z M20,8.005
			c-1.105,0-2-0.896-2-2c0,0,0-1.619,0-4l6,6H20z"/>
	</g>
</g>
</svg>
