<?xml version="1.0" encoding="iso-8859-1"?>
<!-- Generator: Adobe Illustrator 18.0.0, SVG Export Plug-In . SVG Version: 6.00 Build 0)  -->
<!DOCTYPE svg PUBLIC "-//W3C//DTD SVG 1.1//EN" "http://www.w3.org/Graphics/SVG/1.1/DTD/svg11.dtd">
<svg version="1.1" id="Capa_1" xmlns="http://www.w3.org/2000/svg" xmlns:xlink="http://www.w3.org/1999/xlink" x="0px" y="0px"
	 viewBox="0 0 32 32" style="enable-background:new 0 0 32 32;" xml:space="preserve">
<g id="_x36__20_">
	<g>
		<path style="fill-rule:evenodd;clip-rule:evenodd;" d="M28,4H14c0-2.209-1.791-4-4-4H4C1.791,0,0,1.791,0,4v24
			c0,2.209,1.791,4,4,4h24c2.209,0,4-1.791,4-4V8C32,5.791,30.209,4,28,4z M30,28c0,1.105-0.895,2-2,2H4c-1.105,0-2-0.896-2-2V12h28
			V28z M30,10H2V4c0-1.105,0.895-2,2-2h6c1.105,0,2,0.895,2,2v2h16c1.105,0,2,0.896,2,2V10z"/>
	</g>
</g>
<g>
</g>
<g>
</g>
<g>
</g>
<g>
</g>
<g>
</g>
<g>
</g>
<g>
</g>
<g>
</g>
<g>
</g>
<g>
</g>
<g>
</g>
<g>
</g>
<g>
</g>
<g>
</g>
<g>
</g>
</svg>
