<?xml version="1.0" encoding="iso-8859-1"?>
<!-- Generator: Adobe Illustrator 18.0.0, SVG Export Plug-In . SVG Version: 6.00 Build 0)  -->
<!DOCTYPE svg PUBLIC "-//W3C//DTD SVG 1.1//EN" "http://www.w3.org/Graphics/SVG/1.1/DTD/svg11.dtd">
<svg version="1.1" id="Capa_1" xmlns="http://www.w3.org/2000/svg" xmlns:xlink="http://www.w3.org/1999/xlink" x="0px" y="0px"
	 viewBox="0 0 31.963 27.956" style="enable-background:new 0 0 31.963 27.956;" xml:space="preserve">
<g id="_x31_0_12_">
	<g>
		<path style="fill-rule:evenodd;clip-rule:evenodd;" d="M31.416,12.568L14.429,0.38c-1.126-0.604-2.416-0.747-2.417,1.579v5.305
			L2.417,0.38C1.291-0.225-0.031-0.243,0.001,2.021v23.942c0.032,2.045,1.384,2.341,2.417,1.673l9.595-6.885v5.243
			c0.001,1.983,1.385,2.31,2.417,1.642l16.987-12.188C32.127,14.935,32.162,13.08,31.416,12.568z M14.014,25.208
			c0-0.469,0-8.4,0-8.4l-12.012,8.4v-22.4l12.012,8.4c0,0,0-6.612,0-8.4l16.016,11.2L14.014,25.208z"/>
	</g>
</g>
<g>
</g>
<g>
</g>
<g>
</g>
<g>
</g>
<g>
</g>
<g>
</g>
<g>
</g>
<g>
</g>
<g>
</g>
<g>
</g>
<g>
</g>
<g>
</g>
<g>
</g>
<g>
</g>
<g>
</g>
</svg>
