<?xml version="1.0" encoding="iso-8859-1"?>
<!-- Generator: Adobe Illustrator 18.0.0, SVG Export Plug-In . SVG Version: 6.00 Build 0)  -->
<!DOCTYPE svg PUBLIC "-//W3C//DTD SVG 1.1//EN" "http://www.w3.org/Graphics/SVG/1.1/DTD/svg11.dtd">
<svg version="1.1" id="Capa_1" xmlns="http://www.w3.org/2000/svg" xmlns:xlink="http://www.w3.org/1999/xlink"
	 viewBox="-5 -5 90 90" xml:space="preserve">
<g>
	<path d="M74.705,41.21c-1.453,0-2.578,1.12-2.578,2.58v35.24H53.846V64.64c0-1.35-1.125-2.53-2.485-2.53H38.143
		c-1.454,0-2.625,1.18-2.625,2.53v14.39H17.283V44.96c0-1.36-1.124-2.49-2.578-2.49c-1.359,0-2.484,1.13-2.484,2.49v36.65
		c0,1.36,1.125,2.49,2.484,2.49h23.438c1.359,0,2.484-1.13,2.484-2.49V67.22h8.156v14.39c0,1.36,1.125,2.49,2.578,2.49h23.344
		c1.359,0,2.484-1.13,2.484-2.49V43.79C77.189,42.33,76.064,41.21,74.705,41.21z"/>
	<path d="M88.72,43.22L68.377,22.79V8.86c0-1.45-1.172-2.57-2.625-2.57c-1.36,0-2.485,1.12-2.485,2.57v8.82L46.486,0.8
		C45.972,0.28,45.361,0,44.752,0c-0.703,0-1.313,0.29-1.828,0.8L0.784,42.94c-1.011,1.01-1.078,2.63,0,3.56
		c0.937,1.08,2.551,1.01,3.562,0L44.752,6.19l40.312,40.69c0.42,0.42,1.031,0.66,1.828,0.66c0.703,0,1.312-0.24,1.828-0.66
		C89.658,45.94,89.728,44.24,88.72,43.22z"/>
</g>

</svg>
