<?xml version="1.0" encoding="iso-8859-1"?>
<!-- Generator: Adobe Illustrator 18.0.0, SVG Export Plug-In . SVG Version: 6.00 Build 0)  -->
<!DOCTYPE svg PUBLIC "-//W3C//DTD SVG 1.1//EN" "http://www.w3.org/Graphics/SVG/1.1/DTD/svg11.dtd">
<svg version="1.1" id="Capa_1" xmlns="http://www.w3.org/2000/svg" xmlns:xlink="http://www.w3.org/1999/xlink" x="0px" y="0px"
	 viewBox="0 0 57.515 81.14" style="enable-background:new 0 0 57.515 81.14;" xml:space="preserve">
<g>
	<path d="M31.781,75.937h-6.14c-1.453,0-2.578,1.172-2.578,2.625s1.125,2.578,2.578,2.578h6.14c1.547,0,2.719-1.125,2.719-2.578
		S33.328,75.937,31.781,75.937z"/>
	<path d="M36.609,68.765H20.953c-1.453,0-2.672,1.125-2.672,2.578s1.219,2.578,2.672,2.578h15.656c1.453,0,2.578-1.125,2.578-2.578
		S38.062,68.765,36.609,68.765z"/>
	<path d="M53.672,14.203c-2.578-4.359-6.063-7.8-10.5-10.359C38.749,1.293,33.938,0,28.734,0C21,0,13.512,3.246,8.391,8.344
		C3.293,13.418,0,20.765,0,28.453c0,3.469,0.797,7.031,2.344,10.641c1.547,3.609,3.951,8.054,7.172,13.359
		c0.763,1.257,1.615,3.197,2.625,5.765c1.24,3.151,2.343,5.298,3.234,6.516c0.515,0.704,1.219,1.031,2.11,1.031h23.437
		c0.984,0,1.676-0.429,2.203-1.219c0.692-1.038,1.433-2.819,2.297-5.296c0.917-2.632,1.725-4.506,2.39-5.672
		c3.132-5.49,5.578-10.219,7.219-14.109c1.641-3.891,2.484-7.594,2.484-11.016C57.515,23.343,56.25,18.562,53.672,14.203z
		 M50.015,38.016c-1.538,3.519-3.729,7.886-6.703,12.984c-0.964,1.652-1.891,3.791-2.765,6.515c-0.345,1.073-0.75,2.11-1.172,3.094
		H18.938c-0.703-1.172-1.256-2.647-1.922-4.312c-1.303-3.258-2.391-5.391-3.094-6.563c-2.953-4.922-5.109-8.953-6.562-12.187
		c-1.453-3.234-2.104-6.235-2.156-9.094c-0.229-12.47,10.873-23.46,23.53-23.25c4.265,0.071,8.25,1.031,11.86,3.141
		c3.609,2.109,6.468,4.922,8.578,8.484c2.109,3.562,3.187,7.453,3.187,11.625C52.359,31.265,51.571,34.456,50.015,38.016z"/>
</g>
<g>
</g>
<g>
</g>
<g>
</g>
<g>
</g>
<g>
</g>
<g>
</g>
<g>
</g>
<g>
</g>
<g>
</g>
<g>
</g>
<g>
</g>
<g>
</g>
<g>
</g>
<g>
</g>
<g>
</g>
</svg>
