<?xml version="1.0" encoding="iso-8859-1"?>
<!-- Generator: Adobe Illustrator 18.0.0, SVG Export Plug-In . SVG Version: 6.00 Build 0)  -->
<!DOCTYPE svg PUBLIC "-//W3C//DTD SVG 1.1//EN" "http://www.w3.org/Graphics/SVG/1.1/DTD/svg11.dtd">
<svg version="1.1" id="Capa_1" xmlns="http://www.w3.org/2000/svg" xmlns:xlink="http://www.w3.org/1999/xlink"
	 viewBox="0 0 32 32" xml:space="preserve">
<g id="_x35__21_">
	<g>
		<path d="M28,0H4C1.805,0,0,1.969,0,4.165v23.859C0,30.22,1.779,32,3.974,32h23.843
			C30.012,32,32,30.196,32,28V4C32,1.804,30.195,0,28,0z M30,28c0,1.098-1.086,2.012-2.183,2.012H3.974
			c-1.097,0-1.987-0.89-1.987-1.988V4.165C1.987,3.067,2.903,2,4,2h24c1.097,0,2,0.902,2,2V28z M24,20H8c-0.552,0-1,0.448-1,1
			c0,0.552,0.448,1,1,1h16c0.552,0,1-0.448,1-1C25,20.448,24.552,20,24,20z M24,14H8c-0.552,0-1,0.448-1,1c0,0.552,0.448,1,1,1h16
			c0.552,0,1-0.448,1-1C25,14.448,24.552,14,24,14z M24,8H8C7.448,8,7,8.448,7,9s0.448,1,1,1h16c0.552,0,1-0.448,1-1S24.552,8,24,8z
			"/>
	</g>
</g>
</svg>
