<?xml version="1.0" encoding="iso-8859-1"?>
<!-- Generator: Adobe Illustrator 18.0.0, SVG Export Plug-In . SVG Version: 6.00 Build 0)  -->
<!DOCTYPE svg PUBLIC "-//W3C//DTD SVG 1.1//EN" "http://www.w3.org/Graphics/SVG/1.1/DTD/svg11.dtd">
<svg version="1.1" id="Capa_1" xmlns="http://www.w3.org/2000/svg" xmlns:xlink="http://www.w3.org/1999/xlink" x="0px" y="0px"
	 viewBox="0 0 32 28" style="enable-background:new 0 0 32 28;" xml:space="preserve">
<g id="_x33__13_">
	<g>
		<path style="fill-rule:evenodd;clip-rule:evenodd;" d="M30,12l-6,4c0-1.214-0.552-2.288-1.406-3.022C24.627,11.753,26,9.546,26,7
			c0-3.866-3.134-7-7-7s-7,3.134-7,7c0,1.961,0.811,3.729,2.111,5h-3.668C11.401,10.937,12,9.544,12,8c0-3.314-2.686-6-6-6
			C2.686,2,0,4.686,0,8c0,1.808,0.817,3.41,2.082,4.51C0.847,13.191,0,14.49,0,16v8c0,2.209,1.791,4,4,4h16c2.209,0,4-1.791,4-4v-1
			l6,5c1.105,0,2-0.895,2-2V14C32,12.895,31.105,12,30,12z M2,8c0-2.209,1.791-4,4-4c2.209,0,4,1.791,4,4c0,2.209-1.791,4-4,4
			C3.791,12,2,10.209,2,8z M22,24c0,1.104-0.895,2-2,2H4c-1.105,0-2-0.895-2-2v-8c0-1.105,0.895-2,2-2h16c1.105,0,2,0.895,2,2V24z
			 M19,12.011c-2.768,0-5.011-2.244-5.011-5.011c0-2.768,2.244-5.011,5.011-5.011S24.011,4.232,24.011,7
			C24.011,9.768,21.768,12.011,19,12.011z M30,26l-6-5v-3l6-4V26z"/>
	</g>
</g>
<g>
</g>
<g>
</g>
<g>
</g>
<g>
</g>
<g>
</g>
<g>
</g>
<g>
</g>
<g>
</g>
<g>
</g>
<g>
</g>
<g>
</g>
<g>
</g>
<g>
</g>
<g>
</g>
<g>
</g>
</svg>
