<?xml version="1.0" encoding="iso-8859-1"?>
<!-- Generator: Adobe Illustrator 18.0.0, SVG Export Plug-In . SVG Version: 6.00 Build 0)  -->
<!DOCTYPE svg PUBLIC "-//W3C//DTD SVG 1.1//EN" "http://www.w3.org/Graphics/SVG/1.1/DTD/svg11.dtd">
<svg version="1.1" id="Capa_1" xmlns="http://www.w3.org/2000/svg" xmlns:xlink="http://www.w3.org/1999/xlink"
	 viewBox="-2 -2 32 32" xml:space="preserve">
<g id="_x31_0_11_">
	<g>
		<path d="M31.013,0c-0.151,0-0.291,0.039-0.419,0.099L14.013,4c-0.552,0-1,0.448-1,1
			v14.002c-2.101-1.366-5.477-1.364-8.49,0.238c-3.802,2.022-5.55,5.792-3.904,8.419c1.646,2.627,6.064,3.117,9.866,1.095
			c2.451-1.303,4.143-3.773,4.528-5.754c0-0.259,0-17.235,0-17.235l15-3.529v12.767c-2.101-1.366-5.477-1.365-8.49,0.238
			c-3.802,2.023-5.55,5.792-3.904,8.419c1.646,2.627,6.235,3.244,10.053,1.251c2.857-1.491,4.112-3.804,4.341-5.91
			c0-0.353,0-18,0-18C32.013,0.447,31.566,0,31.013,0z M10.013,27c-2.895,1.571-6.199,1.602-7.593-0.126
			c-1.393-1.729-0.17-4.392,2.732-5.949c2.902-1.557,5.451-1.498,7.167-0.229C14.199,22.087,12.478,25.662,10.013,27z
			 M27.165,23.188c-2.863,1.6-6.368,1.366-7.743-0.364c-1.375-1.731-0.139-4.374,2.763-5.904c2.901-1.53,5.552-1.592,7.137-0.177
			C31.028,18.265,29.566,21.847,27.165,23.188z"/>
	</g>
</g>
</svg>
