<?xml version="1.0" encoding="iso-8859-1"?>
<!-- Generator: Adobe Illustrator 18.0.0, SVG Export Plug-In . SVG Version: 6.00 Build 0)  -->
<!DOCTYPE svg PUBLIC "-//W3C//DTD SVG 1.1//EN" "http://www.w3.org/Graphics/SVG/1.1/DTD/svg11.dtd">
<svg version="1.1" id="Capa_1" xmlns="http://www.w3.org/2000/svg" xmlns:xlink="http://www.w3.org/1999/xlink" 
	 viewBox="-3 -3 32 32" xml:space="preserve">
<g id="_x38__12_">
	<g>
		<path d="M6,0H2C0.896,0,0,0.896,0,2v24c0,1.104,0.896,2,2,2h4c1.105,0,2-0.895,2-2
			V2C8,0.896,7.105,0,6,0z M6,25c0,0.552-0.448,1-1,1H3c-0.552,0-1-0.448-1-1V3c0-0.552,0.448-1,1-1h2c0.552,0,1,0.448,1,1V25z
			 M18,0h-4c-1.105,0-2,0.896-2,2v24c0,1.104,0.895,2,2,2h4c1.105,0,2-0.895,2-2V2C20,0.896,19.105,0,18,0z M18,25
			c0,0.552-0.448,1-1,1h-2c-0.552,0-1-0.448-1-1V3c0-0.552,0.448-1,1-1h2c0.552,0,1,0.448,1,1V25z"/>
	</g>
</g>
</svg>
