<?xml version="1.0" encoding="iso-8859-1"?>
<!-- Generator: Adobe Illustrator 18.0.0, SVG Export Plug-In . SVG Version: 6.00 Build 0)  -->
<!DOCTYPE svg PUBLIC "-//W3C//DTD SVG 1.1//EN" "http://www.w3.org/Graphics/SVG/1.1/DTD/svg11.dtd">
<svg version="1.1" id="Capa_1" xmlns="http://www.w3.org/2000/svg" xmlns:xlink="http://www.w3.org/1999/xlink" 
	 viewBox="-3 -3 32 32" xml:space="preserve">
<g id="_x34__14_">
	<g>
		<path d="M28,4h-3l-1-2c-0.589-1.164-0.895-2-2-2H10C8.895,0,8.53,0.954,8,2L7,4H4
			C1.791,4,0,5.791,0,8v16c0,2.209,1.791,4,4,4h24c2.209,0,4-1.791,4-4V8C32,5.791,30.209,4,28,4z M30,24c0,1.105-0.895,2-2,2H4
			c-1.105,0-2-0.895-2-2V8c0-1.104,0.895-2,2-2h4l1-2c0.707-1.163,0.895-2,2-2h10c1.105,0,1.293,0.836,2,2l1,2h4
			c1.105,0,2,0.895,2,2V24z M16,8c-4.418,0-8,3.582-8,8c0,4.418,3.582,8,8,8s8-3.582,8-8C24,11.582,20.418,8,16,8z M16,22
			c-3.314,0-6-2.686-6-6c0-3.314,2.686-6,6-6s6,2.686,6,6C22,19.314,19.314,22,16,22z"/>
	</g>
</g>
</svg>
