<?xml version="1.0" encoding="iso-8859-1"?>
<!-- Generator: Adobe Illustrator 17.1.0, SVG Export Plug-In . SVG Version: 6.00 Build 0)  -->
<!DOCTYPE svg PUBLIC "-//W3C//DTD SVG 1.1//EN" "http://www.w3.org/Graphics/SVG/1.1/DTD/svg11.dtd">
<svg version="1.1" id="Capa_1" xmlns="http://www.w3.org/2000/svg" xmlns:xlink="http://www.w3.org/1999/xlink" x="0px" y="0px"
	 viewBox="0 0 315.12 315.12" style="enable-background:new 0 0 315.12 315.12;" xml:space="preserve">
<g>
	<path style="fill:#000002;" d="M140.102,77.411H38.658c-8.271,0-15,6.729-15,15v100.684c0,8.271,6.729,15,15,15h101.443
		c8.271,0,15-6.729,15-15V92.411C155.102,84.14,148.373,77.411,140.102,77.411z M38.658,87.411h101.443c2.757,0,5,2.243,5,5v21.411
		l-50.41,45.736c-0.936,0.849-2.113,1.262-3.292,1.165c-1.188-0.097-2.275-0.694-3.061-1.683l-15.928-20.05
		c-5.06-6.367-14.561-7.705-21.181-2.982l-17.572,12.537V92.411C33.658,89.654,35.901,87.411,38.658,87.411z M140.102,198.094
		H38.658c-2.757,0-5-2.243-5-5V160.83l23.381-16.682c2.314-1.653,5.77-1.167,7.542,1.063l15.928,20.05
		c2.525,3.178,6.104,5.106,10.079,5.43c0.394,0.032,0.785,0.048,1.176,0.048c3.551,0,6.939-1.317,9.646-3.774l43.691-39.64v65.771
		C145.102,195.851,142.858,198.094,140.102,198.094z"/>
	<path style="fill:#000002;" d="M306.861,105.464l-122.1-75.883c-8.194-5.092-19.006-2.571-24.102,5.626l-10.157,16.344H17.5
		c-9.649,0-17.5,7.851-17.5,17.5v177.016c0,9.649,7.851,17.5,17.5,17.5h142.096l35.354,21.97c2.868,1.783,6.056,2.633,9.208,2.633
		c5.854-0.001,11.581-2.931,14.893-8.258l93.438-150.346C317.581,121.37,315.058,110.559,306.861,105.464z M183.802,71.206
		l86.161,53.547c2.342,1.456,3.064,4.544,1.607,6.886l-53.146,85.514c-1.455,2.341-4.543,3.064-6.886,1.608l-32.779-20.372V69.9
		C179.443,69.688,181.486,69.767,183.802,71.206z M15,246.067V69.051c0-1.355,1.145-2.5,2.5-2.5h143.76c1.355,0,2.5,1.145,2.5,2.5
		v177.016c0,1.355-1.145,2.5-2.5,2.5H17.5C16.145,248.567,15,247.422,15,246.067z M299.747,121.647L206.31,271.993
		c-0.715,1.15-2.292,1.521-3.442,0.804L175.71,255.92c1.922-2.809,3.05-6.201,3.05-9.854v-35.904l27.5,17.091
		c2.396,1.49,5.107,2.256,7.87,2.256c1.148,0,2.307-0.132,3.455-0.4c3.909-0.913,7.224-3.284,9.333-6.678l53.146-85.514
		c2.109-3.393,2.768-7.415,1.855-11.325c-0.912-3.909-3.283-7.223-6.677-9.333l-86.161-53.547
		c-4.286-2.664-8.956-3.445-12.735-2.488c-2.01-3.422-5.144-6.097-8.896-7.523l5.951-9.577c0.715-1.152,2.292-1.519,3.443-0.804
		l122.1,75.882C300.094,118.92,300.463,120.496,299.747,121.647z"/>
</g>
<g>
</g>
<g>
</g>
<g>
</g>
<g>
</g>
<g>
</g>
<g>
</g>
<g>
</g>
<g>
</g>
<g>
</g>
<g>
</g>
<g>
</g>
<g>
</g>
<g>
</g>
<g>
</g>
<g>
</g>
</svg>
