<?xml version="1.0" encoding="iso-8859-1"?>
<!-- Generator: Adobe Illustrator 18.0.0, SVG Export Plug-In . SVG Version: 6.00 Build 0)  -->
<!DOCTYPE svg PUBLIC "-//W3C//DTD SVG 1.1//EN" "http://www.w3.org/Graphics/SVG/1.1/DTD/svg11.dtd">
<svg version="1.1" id="Capa_1" xmlns="http://www.w3.org/2000/svg" xmlns:xlink="http://www.w3.org/1999/xlink"
	 viewBox="-3 -3 32 32" xml:space="preserve">
<g id="_x36__5_">
	<g>
		<path d="M17.343,20.242c-0.391,0.391-0.391,1.024,0,1.414
			c0.391,0.391,1.024,0.391,1.414,0l6.899-6.9c0.208-0.208,0.297-0.485,0.283-0.757c0.014-0.273-0.075-0.549-0.283-0.757
			l-6.899-6.899c-0.39-0.391-1.024-0.391-1.414,0c-0.391,0.391-0.391,1.024,0,1.414L22.586,13H1c-0.552,0-1,0.448-1,1
			c0,0.552,0.448,1,1,1h21.586L17.343,20.242z M28,0H8C5.791,0,4,1.791,4,4v4h2V4c0-1.104,0.895-2,2-2h20c1.105,0,2,0.896,2,2v20
			c0,1.104-0.895,2-2,2H8c-1.105,0-2-0.895-2-2v-4H4v4c0,2.209,1.791,4,4,4h20c2.209,0,4-1.791,4-4V4C32,1.791,30.209,0,28,0z"/>
	</g>
</g>
</svg>
