<?xml version="1.0" encoding="iso-8859-1"?>
<!-- Generator: Adobe Illustrator 17.1.0, SVG Export Plug-In . SVG Version: 6.00 Build 0)  -->
<!DOCTYPE svg PUBLIC "-//W3C//DTD SVG 1.1//EN" "http://www.w3.org/Graphics/SVG/1.1/DTD/svg11.dtd">
<svg version="1.1" id="Capa_1" xmlns="http://www.w3.org/2000/svg" xmlns:xlink="http://www.w3.org/1999/xlink" x="0px" y="0px"
	 viewBox="0 0 237.55 237.55" style="enable-background:new 0 0 237.55 237.55;" xml:space="preserve">
<g>
	<path style="fill:#000002;" d="M118.774,0C53.282,0,0,53.282,0,118.775C0,184.268,53.282,237.55,118.774,237.55
		c65.493,0,118.775-53.282,118.775-118.774C237.55,53.282,184.268,0,118.774,0z M118.774,222.55
		C61.553,222.55,15,175.997,15,118.775C15,61.553,61.553,15,118.774,15c57.222,0,103.775,46.553,103.775,103.775
		C222.55,175.997,175.997,222.55,118.774,222.55z"/>
	<path style="fill:#000002;" d="M157.15,57.113c-3.505-2.207-8.136-1.154-10.343,2.35c-2.207,3.505-1.155,8.136,2.35,10.343
		c16.742,10.543,26.738,28.622,26.738,48.36c0,31.496-25.624,57.119-57.12,57.119c-31.496,0-57.119-25.624-57.119-57.119
		c0-19.74,9.996-37.819,26.738-48.361c3.505-2.207,4.558-6.838,2.351-10.343c-2.207-3.505-6.838-4.557-10.343-2.351
		c-21.131,13.306-33.746,36.13-33.746,61.055c0,39.767,32.353,72.119,72.119,72.119c39.767,0,72.12-32.353,72.12-72.119
		C190.895,93.243,178.28,70.419,157.15,57.113z"/>
	<path style="fill:#000002;" d="M118.775,92.222c4.142,0,7.5-3.358,7.5-7.5V45.917c0-4.142-3.358-7.5-7.5-7.5
		c-4.142,0-7.5,3.358-7.5,7.5v38.805C111.275,88.864,114.633,92.222,118.775,92.222z"/>
</g>
<g>
</g>
<g>
</g>
<g>
</g>
<g>
</g>
<g>
</g>
<g>
</g>
<g>
</g>
<g>
</g>
<g>
</g>
<g>
</g>
<g>
</g>
<g>
</g>
<g>
</g>
<g>
</g>
<g>
</g>
</svg>
