<?xml version="1.0" encoding="iso-8859-1"?>
<!-- Generator: Adobe Illustrator 18.0.0, SVG Export Plug-In . SVG Version: 6.00 Build 0)  -->
<!DOCTYPE svg PUBLIC "-//W3C//DTD SVG 1.1//EN" "http://www.w3.org/Graphics/SVG/1.1/DTD/svg11.dtd">
<svg version="1.1" id="Capa_1" xmlns="http://www.w3.org/2000/svg" xmlns:xlink="http://www.w3.org/1999/xlink"
	 viewBox="-4 -4 34 34" xml:space="preserve">
<g id="_x37__11_">
	<g>
		<path d="M16.006,24c-5.039,0-9.282-3.384-10.589-8h3.252
			c0.309-0.3,0.471-0.706,0.162-1.006l-3.756-3.794c-0.309-0.3-0.81-0.3-1.119,0l-3.731,3.794C-0.218,15.514,0.078,15.7,0.387,16
			h2.981c1.357,5.73,6.487,10,12.638,10c4.679,0,8.77-2.476,11.063-6.179l-1.883-0.752C23.214,22.039,19.841,24,16.006,24z
			 M31.691,11h-2.843C27.883,4.772,22.51,0,16.006,0C10.99,0,6.645,2.839,4.473,6.991l1.864,0.745C8.204,4.319,11.834,2,16.006,2
			c5.396,0,9.878,3.881,10.82,9H23.41c-0.309,0.3-0.605,0.486-0.162,1.006l3.731,3.794c0.309,0.3,0.81,0.3,1.119,0l3.756-3.794
			C32.162,11.706,32,11.3,31.691,11z"/>
	</g>
</g>
</svg>
