<?xml version="1.0" encoding="iso-8859-1"?>
<!-- Generator: Adobe Illustrator 18.0.0, SVG Export Plug-In . SVG Version: 6.00 Build 0)  -->
<!DOCTYPE svg PUBLIC "-//W3C//DTD SVG 1.1//EN" "http://www.w3.org/Graphics/SVG/1.1/DTD/svg11.dtd">
<svg version="1.1" id="Capa_1" xmlns="http://www.w3.org/2000/svg" xmlns:xlink="http://www.w3.org/1999/xlink" 
	 viewBox="10 40 620 620" xml:space="preserve">
<g id="_x36__14_">
	<g>
		<path d="M372.938,357.75c-15.835,0-28.688,12.833-28.688,28.688c0,15.836,12.852,28.688,28.688,28.688
			s28.688-12.852,28.688-28.688C401.625,370.583,388.773,357.75,372.938,357.75z M248.625,376.875H191.25V319.5
			c0-10.557-8.568-19.125-19.125-19.125S153,308.943,153,319.5v57.375H95.625c-10.557,0-19.125,8.568-19.125,19.125
			s8.568,19.125,19.125,19.125H153V472.5c0,10.557,8.568,19.125,19.125,19.125s19.125-8.568,19.125-19.125v-57.375h57.375
			c10.557,0,19.125-8.568,19.125-19.125S259.182,376.875,248.625,376.875z M430.312,434.25c-15.835,0-28.688,12.833-28.688,28.688
			c0,15.836,12.852,28.688,28.688,28.688S459,478.773,459,462.938S446.148,434.25,430.312,434.25z M449.438,300.375
			c-15.835,0-28.688,12.852-28.688,28.688s12.852,28.688,28.688,28.688s28.688-12.852,28.688-28.688
			S465.273,300.375,449.438,300.375z M506.812,376.875c-15.835,0-28.688,12.852-28.688,28.688s12.852,28.688,28.688,28.688
			c15.836,0,28.688-12.852,28.688-28.688S522.648,376.875,506.812,376.875z M497.25,223.875h-382.5
			C51.37,223.875,0,275.245,0,338.625v114.75c0,63.38,51.37,114.75,114.75,114.75h382.5c63.38,0,114.75-51.37,114.75-114.75v-114.75
			C612,275.245,560.63,223.875,497.25,223.875z M573.75,453.375c0,42.247-34.253,76.5-76.5,76.5h-382.5
			c-42.247,0-76.5-34.253-76.5-76.5v-114.75c0-42.247,34.253-76.5,76.5-76.5h382.5c42.247,0,76.5,34.253,76.5,76.5V453.375z"/>
	</g>
</g>
</svg>
