<?xml version="1.0" encoding="iso-8859-1"?>
<!-- Generator: Adobe Illustrator 18.0.0, SVG Export Plug-In . SVG Version: 6.00 Build 0)  -->
<!DOCTYPE svg PUBLIC "-//W3C//DTD SVG 1.1//EN" "http://www.w3.org/Graphics/SVG/1.1/DTD/svg11.dtd">
<svg version="1.1" id="Capa_1" xmlns="http://www.w3.org/2000/svg" xmlns:xlink="http://www.w3.org/1999/xlink" 
	 viewBox="-1 -1 34 34" xml:space="preserve">
<g id="_x32__13_">
	<g>
		<path d="M19,10c0.552,0,1-0.448,1-1V5c0-0.552-0.448-1-1-1c-0.552,0-1,0.448-1,1v4
			C18,9.552,18.448,10,19,10z M28,0H4C1.791,0,0,1.791,0,4v24c0,2.209,1.791,4,4,4h24c2.209,0,4-1.791,4-4V4C32,1.791,30.209,0,28,0
			z M8,2h16v9c0,0.552-0.448,1-1,1H9c-0.552,0-1-0.448-1-1V2z M30,28c0,1.105-0.895,2-2,2H4c-1.105,0-2-0.895-2-2V4
			c0-1.105,0.895-2,2-2h2v10c0,1.104,0.895,2,2,2h16c1.105,0,2-0.896,2-2V2h2c1.105,0,2,0.896,2,2V28z"/>
	</g>
</g>
</svg>
