<?xml version="1.0" encoding="iso-8859-1"?>
<!-- Generator: Adobe Illustrator 18.0.0, SVG Export Plug-In . SVG Version: 6.00 Build 0)  -->
<!DOCTYPE svg PUBLIC "-//W3C//DTD SVG 1.1//EN" "http://www.w3.org/Graphics/SVG/1.1/DTD/svg11.dtd">
<svg version="1.1" id="Capa_1" xmlns="http://www.w3.org/2000/svg" xmlns:xlink="http://www.w3.org/1999/xlink"
	 viewBox="-1 -1 32 32" xml:space="preserve">
<g id="_x34__1_">
	<g>
		<path d="M31.689,30.252l-8.26-8.128c2.163-2.35,3.492-5.458,3.492-8.878
			C26.92,5.93,20.894,0,13.46,0C6.026,0,0,5.93,0,13.246s6.026,13.246,13.46,13.246c3.212,0,6.158-1.111,8.472-2.958l8.292,8.16
			c0.404,0.398,1.06,0.398,1.464,0C32.093,31.296,32.093,30.65,31.689,30.252z M13.46,24.454c-6.29,0-11.389-5.018-11.389-11.208
			S7.17,2.038,13.46,2.038c6.29,0,11.389,5.018,11.389,11.208S19.75,24.454,13.46,24.454z"/>
	</g>
</g>
</svg>
