<?xml version="1.0" encoding="iso-8859-1"?>
<!-- Generator: Adobe Illustrator 18.0.0, SVG Export Plug-In . SVG Version: 6.00 Build 0)  -->
<!DOCTYPE svg PUBLIC "-//W3C//DTD SVG 1.1//EN" "http://www.w3.org/Graphics/SVG/1.1/DTD/svg11.dtd">
<svg version="1.1" id="Capa_1" xmlns="http://www.w3.org/2000/svg" xmlns:xlink="http://www.w3.org/1999/xlink"
	 viewBox="-3 -3 32 32" xml:space="preserve">
<g id="_x36__12_">
	<g>
		<path d="M6,12.101V1c0-0.552-0.448-1-1-1S4,0.448,4,1v11.101
			C1.718,12.564,0,14.581,0,17c0,2.419,1.718,4.436,4,4.899V27c0,0.552,0.448,1,1,1s1-0.448,1-1v-5.101c2.282-0.463,4-2.48,4-4.899
			C10,14.581,8.282,12.564,6,12.101z M5,20c-1.657,0-3-1.343-3-3c0-1.657,1.343-3,3-3s3,1.343,3,3C8,18.657,6.657,20,5,20z
			 M16,2.101V1c0-0.552-0.448-1-1-1c-0.552,0-1,0.448-1,1v1.101C11.718,2.564,10,4.581,10,7s1.718,4.436,4,4.899V27
			c0,0.552,0.448,1,1,1c0.552,0,1-0.448,1-1V11.899c2.282-0.463,4-2.48,4-4.899S18.282,2.564,16,2.101z M15,10c-1.657,0-3-1.343-3-3
			c0-1.657,1.343-3,3-3c1.657,0,3,1.343,3,3C18,8.657,16.657,10,15,10z M26,16.101V1c0-0.552-0.448-1-1-1c-0.552,0-1,0.448-1,1
			v15.101c-2.282,0.463-4,2.48-4,4.899c0,2.419,1.718,4.436,4,4.899V27c0,0.552,0.448,1,1,1c0.552,0,1-0.448,1-1v-1.101
			c2.282-0.463,4-2.48,4-4.899C30,18.581,28.282,16.564,26,16.101z M25,24c-1.657,0-3-1.343-3-3c0-1.657,1.343-3,3-3
			c1.657,0,3,1.343,3,3C28,22.657,26.657,24,25,24z"/>
	</g>
</g>
</svg>
