<?xml version="1.0" encoding="iso-8859-1"?>
<!-- Generator: Adobe Illustrator 18.0.0, SVG Export Plug-In . SVG Version: 6.00 Build 0)  -->
<!DOCTYPE svg PUBLIC "-//W3C//DTD SVG 1.1//EN" "http://www.w3.org/Graphics/SVG/1.1/DTD/svg11.dtd">
<svg version="1.1" id="Capa_1" xmlns="http://www.w3.org/2000/svg" xmlns:xlink="http://www.w3.org/1999/xlink" x="0px" y="0px"
	 viewBox="0 0 24 26" style="enable-background:new 0 0 24 26;" xml:space="preserve">
<g id="_x35__9_">
	<g>
		<path style="fill-rule:evenodd;clip-rule:evenodd;" d="M19,16c-1.77,0-3.316,0.925-4.204,2.312l-5.354-3.06
			C9.787,14.572,10,13.815,10,13c0-0.503-0.097-0.979-0.235-1.437l5.571-3.183C16.249,9.37,17.547,10,19,10c2.761,0,5-2.239,5-5
			c0-2.761-2.239-5-5-5c-2.761,0-5,2.239-5,5c0,0.503,0.097,0.979,0.235,1.437L8.664,9.621C7.751,8.63,6.453,8,5,8
			c-2.761,0-5,2.238-5,5c0,2.761,2.239,5,5,5c1.14,0,2.178-0.396,3.019-1.039L8,17l6.054,3.46C14.035,20.64,14,20.815,14,21
			c0,2.761,2.239,5,5,5c2.761,0,5-2.239,5-5C24,18.239,21.761,16,19,16z M19,2c1.657,0,3,1.343,3,3c0,1.657-1.343,3-3,3
			c-1.657,0-3-1.343-3-3C16,3.343,17.343,2,19,2z M5,16c-1.657,0-3-1.343-3-3c0-1.657,1.343-3,3-3c1.657,0,3,1.343,3,3
			C8,14.657,6.657,16,5,16z M19,24c-1.657,0-3-1.343-3-3s1.343-3,3-3c1.657,0,3,1.343,3,3S20.657,24,19,24z"/>
	</g>
</g>
<g>
</g>
<g>
</g>
<g>
</g>
<g>
</g>
<g>
</g>
<g>
</g>
<g>
</g>
<g>
</g>
<g>
</g>
<g>
</g>
<g>
</g>
<g>
</g>
<g>
</g>
<g>
</g>
<g>
</g>
</svg>
