<?xml version="1.0" encoding="iso-8859-1"?>
<!-- Generator: Adobe Illustrator 18.0.0, SVG Export Plug-In . SVG Version: 6.00 Build 0)  -->
<!DOCTYPE svg PUBLIC "-//W3C//DTD SVG 1.1//EN" "http://www.w3.org/Graphics/SVG/1.1/DTD/svg11.dtd">
<svg version="1.1" id="Capa_1" xmlns="http://www.w3.org/2000/svg" xmlns:xlink="http://www.w3.org/1999/xlink"
	 viewBox="-5 -5 32 32" xml:space="preserve">
<g id="_x35__12_">
	<g>
		<path d="M14,0L5,6H2C0.895,6,0,6.895,0,8v8c0,1.105,0.895,2,2,2h3l9,6
			c1.105,0,2-0.896,2-2V2C16,0.896,15.105,0,14,0z M5,15c0,0.552-0.448,1-1,1H3c-0.552,0-1-0.448-1-1V9c0-0.552,0.448-1,1-1h1
			c0.552,0,1,0.448,1,1V15z M14,22l-7-4.375V6.375L14,2V22z M25.444,12l4.173-4.173c0.451-0.451,0.492-1.139,0.094-1.538
			c-0.399-0.399-1.087-0.357-1.538,0.094L24,10.556l-4.173-4.173c-0.451-0.451-1.139-0.493-1.538-0.094
			c-0.399,0.399-0.357,1.087,0.094,1.538L22.556,12l-4.173,4.173c-0.451,0.451-0.493,1.139-0.094,1.538
			c0.399,0.399,1.087,0.357,1.538-0.094L24,13.444l4.173,4.173c0.451,0.45,1.139,0.492,1.538,0.094
			c0.399-0.399,0.357-1.088-0.094-1.538L25.444,12z"/>
	</g>
</g>

</svg>
