<?xml version="1.0" encoding="iso-8859-1"?>
<!-- Generator: Adobe Illustrator 18.0.0, SVG Export Plug-In . SVG Version: 6.00 Build 0)  -->
<!DOCTYPE svg PUBLIC "-//W3C//DTD SVG 1.1//EN" "http://www.w3.org/Graphics/SVG/1.1/DTD/svg11.dtd">
<svg version="1.1" id="Capa_1" xmlns="http://www.w3.org/2000/svg" xmlns:xlink="http://www.w3.org/1999/xlink" x="0px" y="0px"
	 viewBox="0 0 16 24" style="enable-background:new 0 0 16 24;" xml:space="preserve">
<g id="_x32__12_">
	<g>
		<path style="fill-rule:evenodd;clip-rule:evenodd;" d="M14,0L5,6H2C0.895,6,0,6.895,0,8v8c0,1.105,0.895,2,2,2h3l9,6
			c1.105,0,2-0.896,2-2V2C16,0.896,15.105,0,14,0z M5,15c0,0.552-0.448,1-1,1H3c-0.552,0-1-0.448-1-1V9c0-0.552,0.448-1,1-1h1
			c0.552,0,1,0.448,1,1V15z M14,22l-7-4.375V6.375L14,2V22z"/>
	</g>
</g>
<g>
</g>
<g>
</g>
<g>
</g>
<g>
</g>
<g>
</g>
<g>
</g>
<g>
</g>
<g>
</g>
<g>
</g>
<g>
</g>
<g>
</g>
<g>
</g>
<g>
</g>
<g>
</g>
<g>
</g>
</svg>
