<?xml version="1.0" encoding="iso-8859-1"?>
<!-- Generator: Adobe Illustrator 18.0.0, SVG Export Plug-In . SVG Version: 6.00 Build 0)  -->
<!DOCTYPE svg PUBLIC "-//W3C//DTD SVG 1.1//EN" "http://www.w3.org/Graphics/SVG/1.1/DTD/svg11.dtd">
<svg version="1.1" id="Capa_1" xmlns="http://www.w3.org/2000/svg" xmlns:xlink="http://www.w3.org/1999/xlink" x="0px" y="0px"
	 viewBox="0 0 32 31.989" style="enable-background:new 0 0 32 31.989;" xml:space="preserve">
<g id="_x36__13_">
	<g>
		<path style="fill-rule:evenodd;clip-rule:evenodd;" d="M27,25.989h-4c-0.552,0-1,0.448-1,1c0,0.552,0.448,1,1,1h4
			c0.552,0,1-0.448,1-1C28,26.437,27.552,25.989,27,25.989z M18,11.989H6c-1.105,0-2,0.896-2,2v12c0,1.104,0.895,2,2,2h12
			c1.105,0,2-0.895,2-2v-12C20,12.885,19.105,11.989,18,11.989z M18,24.989c0,0.552-0.448,1-1,1H7c-0.552,0-1-0.448-1-1v-10
			c0-0.552,0.448-1,1-1h10c0.552,0,1,0.448,1,1V24.989z M27,22.989h-4c-0.552,0-1,0.448-1,1c0,0.552,0.448,1,1,1h4
			c0.552,0,1-0.448,1-1C28,23.437,27.552,22.989,27,22.989z M28,7.989h-9.254l8.772-6.035c0.464-0.319,0.596-0.977,0.296-1.469
			c-0.3-0.492-0.919-0.633-1.383-0.314c0,0-9.61,6.635-10.422,7.125L5.569,0.171C5.106-0.148,4.487-0.007,4.187,0.485
			c-0.3,0.492-0.168,1.15,0.296,1.469l8.772,6.035H4c-2.209,0-4,1.791-4,4v16c0,2.209,1.791,4,4,4h24c2.209,0,4-1.791,4-4v-16
			C32,9.78,30.209,7.989,28,7.989z M30,27.989c0,1.105-0.895,2-2,2H4c-1.105,0-2-0.895-2-2v-16c0-1.104,0.895-2,2-2h24
			c1.105,0,2,0.896,2,2V27.989z M25,11.989c-1.657,0-3,1.343-3,3c0,1.657,1.343,3,3,3c1.657,0,3-1.343,3-3
			C28,13.332,26.657,11.989,25,11.989z M26,15.989h-2v-2h2V15.989z"/>
	</g>
</g>
<g>
</g>
<g>
</g>
<g>
</g>
<g>
</g>
<g>
</g>
<g>
</g>
<g>
</g>
<g>
</g>
<g>
</g>
<g>
</g>
<g>
</g>
<g>
</g>
<g>
</g>
<g>
</g>
<g>
</g>
</svg>
