<?xml version="1.0" encoding="iso-8859-1"?>
<!-- Generator: Adobe Illustrator 18.0.0, SVG Export Plug-In . SVG Version: 6.00 Build 0)  -->
<!DOCTYPE svg PUBLIC "-//W3C//DTD SVG 1.1//EN" "http://www.w3.org/Graphics/SVG/1.1/DTD/svg11.dtd">
<svg version="1.1" id="Capa_1" xmlns="http://www.w3.org/2000/svg" xmlns:xlink="http://www.w3.org/1999/xlink" x="0px" y="0px"
	 viewBox="0 0 26 32" style="enable-background:new 0 0 26 32;" xml:space="preserve">
<g id="_x34__19_">
	<g>
		<path style="fill-rule:evenodd;clip-rule:evenodd;" d="M18,28c0.552,0,1-0.448,1-1V15c0-0.552-0.448-1-1-1c-0.552,0-1,0.448-1,1
			v12C17,27.552,17.448,28,18,28z M24,4h-6V2c0-1.105-0.895-2-2-2h-6C8.895,0,8,0.895,8,2v2H2C0.895,4,0,4.895,0,6v2
			c0,1.104,0.895,2,2,2v18c0,2.209,1.791,4,4,4h14c2.209,0,4-1.791,4-4V10c1.105,0,2-0.896,2-2V6C26,4.895,25.105,4,24,4z M10,3
			c0-0.552,0.448-1,1-1h4c0.552,0,1,0.448,1,1v1c-0.969,0-6,0-6,0V3z M22,28c0,1.104-0.895,2-2,2H6c-1.105,0-2-0.896-2-2V10h18V28z
			 M23,8H3C2.448,8,2,7.552,2,7c0-0.552,0.448-1,1-1h20c0.552,0,1,0.448,1,1C24,7.552,23.552,8,23,8z M8,28c0.552,0,1-0.448,1-1V15
			c0-0.552-0.448-1-1-1c-0.552,0-1,0.448-1,1v12C7,27.552,7.448,28,8,28z M13,28c0.552,0,1-0.448,1-1V15c0-0.552-0.448-1-1-1
			c-0.552,0-1,0.448-1,1v12C12,27.552,12.448,28,13,28z"/>
	</g>
</g>
<g>
</g>
<g>
</g>
<g>
</g>
<g>
</g>
<g>
</g>
<g>
</g>
<g>
</g>
<g>
</g>
<g>
</g>
<g>
</g>
<g>
</g>
<g>
</g>
<g>
</g>
<g>
</g>
<g>
</g>
</svg>
