<?xml version="1.0" encoding="UTF-8" standalone="no"?>
<!-- Created with Inkscape (http://www.inkscape.org/) -->

<svg
   xmlns:dc="http://purl.org/dc/elements/1.1/"
   xmlns:cc="http://creativecommons.org/ns#"
   xmlns:rdf="http://www.w3.org/1999/02/22-rdf-syntax-ns#"
   xmlns:svg="http://www.w3.org/2000/svg"
   xmlns="http://www.w3.org/2000/svg"
   xmlns:sodipodi="http://sodipodi.sourceforge.net/DTD/sodipodi-0.dtd"
   xmlns:inkscape="http://www.inkscape.org/namespaces/inkscape"
   id="svg3009"
   version="1.1"
   inkscape:version="0.48.2 r9819"
   width="800"
   height="800"
   sodipodi:docname="KodiPassion-square-notitle.png">
  <metadata
     id="metadata3015">
    <rdf:RDF>
      <cc:Work
         rdf:about="">
        <dc:format>image/svg+xml</dc:format>
        <dc:type
           rdf:resource="http://purl.org/dc/dcmitype/StillImage" />
        <dc:title></dc:title>
      </cc:Work>
    </rdf:RDF>
  </metadata>
  <defs
     id="defs3013" />
  <sodipodi:namedview
     pagecolor="#ffffff"
     bordercolor="#666666"
     borderopacity="1"
     objecttolerance="10"
     gridtolerance="10"
     guidetolerance="10"
     inkscape:pageopacity="0"
     inkscape:pageshadow="2"
     inkscape:window-width="1479"
     inkscape:window-height="480"
     id="namedview3011"
     showgrid="false"
     inkscape:zoom="0.295"
     inkscape:cx="400"
     inkscape:cy="400"
     inkscape:window-x="0"
     inkscape:window-y="0"
     inkscape:window-maximized="0"
     inkscape:current-layer="svg3009" />
  <g style="fill:#000000"
     id="g3019">
    <path
       style="fill:#fefefe"
       d="M 0,400 0,0 l 400,0 400,0 0,400 0,400 -400,0 -400,0 0,-400 z"
       id="path3035"
       inkscape:connector-curvature="0" />
    <path
       style="fill:#d0ecf7"
       d="m 292.94578,644.11758 c -7.02295,-4.55333 -86.55472,-84.93289 -88.39321,-89.33546 -1.97491,-4.72924 -1.98535,-11.0872 -0.0249,-15.13099 2.40477,-4.96015 85.19026,-88.10076 90.18244,-90.56929 5.0269,-2.4857 11.19469,-2.67771 15.5895,-0.48532 4.41487,2.20239 88.37509,86.02001 90.7678,90.61364 2.33349,4.47992 2.48136,10.53984 0.37997,15.57196 -1.79643,4.30186 -81.13255,84.44783 -88.36887,89.27093 -6.21148,4.14003 -13.80927,4.16438 -20.13278,0.0645 z M 444.5,496.08446 c -5.58642,-2.61391 -88.82505,-86.16919 -90.95634,-91.30234 -2.12049,-5.10716 -1.93392,-10.08266 0.56516,-15.07196 2.58443,-5.15969 84.72678,-87.67491 89.82019,-90.22792 4.77208,-2.39193 11.70416,-2.27647 16.57099,0.27603 4.84664,2.5419 87.5708,85.30978 89.89457,89.94207 0.88298,1.76019 1.60543,5.62054 1.60543,8.57856 0,4.28738 -0.59771,6.27499 -2.94695,9.79966 -4.49577,6.74522 -84.90052,86.29702 -89.20418,88.25788 -4.76092,2.16921 -10.37117,2.07711 -15.34887,-0.25198 z M 94.78826,449.33013 C 71.728085,426.32356 52.217018,406.28485 51.430334,404.79966 49.488251,401.13318 49.630246,395.13779 51.75,391.30251 c 0.9625,-1.74145 20.310387,-21.87193 42.995305,-44.7344 44.294315,-44.64098 44.218725,-44.57992 48.849705,-39.46339 1.83839,2.03113 1.91399,5.1515 2.16229,89.25 0.24045,81.4409 0.14227,87.37438 -1.5,90.64528 -1.302,2.59317 -2.50662,3.58553 -4.64937,3.83013 -2.62163,0.29926 -6.81289,-3.58156 -44.81967,-41.5 z m 114.3106,-11.93158 c -1.12546,-1.43079 -2.30189,-4.01829 -2.61429,-5.75 C 206.17218,429.91685 206.04785,385.525 206.20829,333 L 206.5,237.5 209.17593,233 c 3.65822,-6.15189 80.27659,-82.19347 84.9752,-84.3355 4.854,-2.21287 10.3162,-2.10214 15.28315,0.30983 5.72073,2.77801 88.91925,86.17899 91.02206,91.24355 0.84901,2.04484 1.53378,5.19484 1.5217,7 -0.0552,8.25089 -0.27795,8.49312 -94.28353,102.53212 -81.63294,81.66196 -90.51917,90.25 -93.38364,90.25 -2.21861,0 -3.77791,-0.77829 -5.21201,-2.60145 z"
       id="path3033"
       inkscape:connector-curvature="0" />
    <path
       style="fill:#b9e3f3"
       d="M 296,645.40658 C 293.83049,644.4674 276.42696,627.85119 250.21801,601.69572 201.85568,553.43206 201.32484,552.75083 204.09025,542.5 c 0.91566,-3.39419 7.69228,-10.64171 44.74442,-47.85366 24.75563,-24.8624 45.05887,-44.45837 46.88321,-45.25 4.15927,-1.80484 11.64239,-1.78786 15.08178,0.0342 3.37658,1.78879 88.52314,87.1893 90.20495,90.47397 2.18588,4.26916 1.64478,11.31716 -1.24263,16.18585 -3.61229,6.09096 -85.2476,87.12085 -89.91311,89.2463 -4.48553,2.04346 -9.23456,2.06743 -13.84887,0.0699 z M 444.5,495.35876 c -4.37665,-2.27755 -87.28539,-85.18763 -89.56748,-89.56892 -2.32225,-4.4584 -2.48328,-10.53592 -0.4106,-15.49656 1.77025,-4.23678 80.31172,-83.64601 87.37183,-88.33714 5.51204,-3.66251 10.13291,-4.55777 15.45271,-2.99387 3.52694,1.03685 10.68273,7.73193 47.43327,44.37939 28.36312,28.28357 43.95879,44.55962 45.25,47.22406 2.53363,5.22823 2.49318,9.4709 -0.14038,14.72412 -2.45547,4.89799 -80.79535,84.08768 -87.81079,88.76335 -5.11574,3.40954 -12.48388,3.95678 -17.57856,1.30557 z M 94.854553,448.28125 C 71.949558,425.30156 52.712058,405.51708 52.104553,404.31574 50.413664,400.972 50.784525,393.84673 52.809257,390.7764 55.841013,386.17901 137.05295,305 138.62045,305 c 3.37245,0 6.17251,4.54535 6.84405,11.10995 0.35952,3.51453 0.51459,42.61505 0.34459,86.89005 -0.34109,88.83347 -0.14955,86.2018 -6.31604,86.78125 -2.734,0.25691 -6.59744,-3.3349 -44.638497,-41.5 z M 208.98904,435.75 c -1.93962,-3.18121 -1.98118,-5.29263 -1.96334,-99.75 0.0178,-94.10029 0.0676,-96.60879 2.00321,-100.87473 1.43904,-3.17151 12.50328,-14.94717 40.22804,-42.81468 21.03368,-21.14198 40.2327,-39.76086 42.66449,-41.37528 5.15151,-3.41999 12.12884,-3.9575 17.37822,-1.33877 4.58307,2.28633 87.39038,85.04831 89.87718,89.82798 3.09682,5.95215 2.2108,12.93155 -2.43724,19.19869 -1.98929,2.68223 -43.14303,44.36429 -91.45276,92.62679 -80.2851,80.20661 -88.11441,87.75 -91.07605,87.75 -2.58245,0 -3.64243,-0.65973 -5.22175,-3.25 z"
       id="path3031"
       inkscape:connector-curvature="0" />
    <path
       style="fill:#92d4ee"
       d="m 293.40004,643.11105 c -2.14502,-1.58892 -22.63312,-21.72642 -45.5291,-44.75 -44.44789,-44.69558 -44.71587,-45.02494 -43.57232,-53.55073 0.29187,-2.17607 1.67917,-5.6111 3.08289,-7.6334 1.40373,-2.02231 21.12964,-22.21576 43.83536,-44.87435 C 293.03429,450.57196 296.04052,448 303,448 c 6.95948,0 9.96571,2.57196 51.78313,44.30257 22.70572,22.65859 42.43163,42.85204 43.83536,44.87435 1.40372,2.0223 2.79102,5.45733 3.08289,7.6334 1.14606,8.54449 0.95185,8.78203 -44.57191,54.51578 -23.44621,23.55436 -44.29904,43.69186 -46.33963,44.75 -5.70988,2.96085 -12.60658,2.57812 -17.3898,-0.96505 z M 445.5,495.08018 c -5.60567,-2.62891 -88.85101,-86.17928 -90.96475,-91.29806 -1.82103,-4.40994 -1.88069,-5.9799 -0.42875,-11.28212 0.92447,-3.37603 7.59233,-10.53175 42.74442,-45.8719 22.90699,-23.02955 43.64968,-43.16705 46.09486,-44.75 4.79209,-3.10229 10.54651,-3.76892 15.73912,-1.82332 2.94772,1.10447 84.39618,81.57283 89.42129,88.34526 4.05605,5.46641 4.05855,12.41485 0.007,18.65418 -4.58464,7.05975 -84.93799,86.57746 -89.33077,88.40176 -4.86396,2.01998 -8.38606,1.92033 -13.28212,-0.3758 z M 94.847437,447.27968 C 49.77241,402.07032 49.910376,402.23751 51.543458,394.80214 52.502021,390.43783 135.18261,306 138.49752,306 c 1.20588,0 3.04975,0.94712 4.09749,2.10471 1.83798,2.03068 1.91404,5.135 2.16238,88.25 0.2405,80.48899 0.14201,86.3751 -1.5,89.64529 -0.98644,1.96458 -2.63477,3.62269 -3.75739,3.77968 -1.4747,0.20623 -13.20276,-10.95646 -44.652563,-42.5 z M 210.13809,436.44843 c -1.10749,-1.40795 -2.28492,-4.88153 -2.627,-7.75 C 207.17013,425.83929 207.02815,381.875 207.19558,331 l 0.30442,-92.5 2.17769,-4 c 3.19134,-5.86188 80.88028,-83.01989 85.54019,-84.9556 4.8637,-2.02037 8.38582,-1.92082 13.28212,0.37542 5.60567,2.62891 88.85101,86.17928 90.96475,91.29806 2.11103,5.11223 1.9365,7.58767 -0.94021,13.33578 C 395.18688,261.22282 217.63265,439 214.30951,439 c -1.19039,0 -3.06753,-1.14821 -4.17142,-2.55157 z"
       id="path3029"
       inkscape:connector-curvature="0" />
    <path
       style="fill:#6ec6e8"
       d="m 296,644.03 c -1.925,-1.03489 -22.92383,-21.3775 -46.66407,-45.20581 -37.05074,-37.18819 -43.3159,-43.89852 -44.23608,-47.37934 -1.13109,-4.27867 -0.52503,-7.84422 2.21025,-13.00327 2.17642,-4.10498 84.46674,-85.8877 88.39024,-87.84502 4.31073,-2.1505 10.57827,-2.01284 15.0895,0.33144 4.5744,2.3771 86.3795,84.33706 88.6046,88.77234 1.84211,3.67185 2.0869,9.88453 0.55101,13.98456 -1.57058,4.19265 -85.51143,88.09091 -90.44545,90.39956 -5.04169,2.35903 -9.04066,2.34289 -13.5,-0.0545 z M 442.92144,493.05319 c -5.92082,-3.94612 -85.25371,-83.68514 -87.30658,-87.75353 -2.16798,-4.29651 -2.03786,-10.56537 0.31321,-15.0895 2.86542,-5.5139 85.67235,-87.74907 90.28981,-89.66638 10.30326,-4.27823 11.69964,-3.22837 59.41951,44.67435 C 546.37537,386.11223 551,391.44147 551,397.49228 c 0,6.4478 -3.09936,10.01977 -45.77276,52.75249 -23.47699,23.50963 -44.11285,43.42213 -45.85747,44.25 -5.21909,2.47662 -11.37949,1.93671 -16.44833,-1.44158 z M 98.176083,450.75 C 77.064735,429.7125 58.038656,410.32209 55.895907,407.6602 51.385624,402.05718 50.701915,396.60253 53.870319,391.5 56.498295,387.2678 137.2303,305.90502 138.75,305.95713 c 3.12824,0.10728 5.06568,3.89858 5.72278,11.19873 0.36359,4.03928 0.51846,43.13932 0.34415,86.88898 -0.29545,74.15406 -0.43709,79.72816 -2.08998,82.25 -1.03637,1.58118 -2.6858,2.70516 -3.96983,2.70516 -1.55506,0 -13.4093,-11.17331 -40.581037,-38.25 z M 209.44897,434.53212 c -1.23085,-2.94585 -1.44813,-17.73591 -1.44339,-98.25 0.004,-64.70212 0.34824,-96.05156 1.08533,-98.78212 0.91476,-3.38878 7.29008,-10.22587 41.7221,-44.7441 22.35329,-22.40925 42.0704,-41.42175 43.8158,-42.25 5.22044,-2.47726 11.38045,-1.93768 16.44975,1.44091 7.23213,4.82009 85.57186,83.96897 87.36865,88.27107 2.08789,4.99909 1.95571,10.08775 -0.37851,14.57196 -1.08415,2.08274 -41.33507,43.07807 -91.76307,93.46016 -97.74551,97.65654 -93.63434,93.99421 -96.85666,86.28212 z"
       id="path3027"
       inkscape:connector-curvature="0" />
    <path
       style="fill:#4bb8e3"
       d="m 295,642.91742 c -4.93653,-2.9268 -85.61998,-84.62412 -88.02151,-89.12758 -2.45679,-4.60709 -2.47351,-8.13801 -0.063,-13.28984 1.24994,-2.67135 16.10688,-18.1739 44.72804,-46.67167 47.18667,-46.98324 46.25164,-46.24693 55.60642,-43.78854 3.74042,0.98296 9.37886,6.23327 47.02567,43.78854 27.93785,27.86993 43.46051,44.08197 44.75,46.73739 2.40531,4.95325 2.45009,7.80525 0.19811,12.61883 -1.9543,4.17729 -82.9499,86.45896 -88.34582,89.74859 -4.45676,2.71708 -11.28005,2.71032 -15.87796,-0.0157 z M 447,494.84057 c -2.72091,-0.76112 -13.2214,-10.70224 -47.17271,-44.65981 -38.50671,-38.51381 -43.8047,-44.18349 -44.78854,-47.93076 -2.46031,-9.37083 -3.24682,-8.376 44.26891,-55.99493 23.73317,-23.78472 44.57847,-43.92222 46.3229,-44.75 4.055,-1.92423 8.45594,-1.91115 13.15156,0.0391 4.29259,1.78283 83.41142,80.10482 88.26628,87.3773 4.06851,6.09456 4.08689,12.25109 0.0528,17.67852 -1.59436,2.14502 -21.50686,22.44665 -44.25,45.11473 -40.34059,40.20746 -45.21349,44.46615 -50.56904,44.19512 -0.98017,-0.0496 -3.35712,-0.53076 -5.28212,-1.06924 z M 95.36874,446.75 C 49.430788,400.68777 50.086373,401.51572 53.355691,393.69114 c 0.877195,-2.09942 17.324314,-19.46695 42.709363,-45.09944 31.426616,-31.73295 41.778276,-41.61437 43.358056,-41.38846 4.55094,0.65078 4.63832,2.51635 4.34867,92.83741 -0.2621,81.73201 -0.33962,84.82504 -2.17677,86.85472 -1.04774,1.15755 -2.39667,2.10463 -2.99762,2.10463 -0.60096,0 -20.05385,-19.0125 -43.22865,-42.25 z m 116.81664,-9.43382 c -0.72305,-0.28926 -1.71216,-1.57152 -2.19803,-2.84945 -0.48587,-1.27794 -0.9591,-45.67001 -1.05162,-98.64905 -0.14671,-84.01257 0.0251,-96.77241 1.34395,-99.8216 0.94377,-2.18195 16.86867,-18.78172 42.36624,-44.16164 44.91912,-44.71184 44.32452,-44.24586 53.39359,-41.84314 4.00443,1.06091 8.73671,5.4416 46.2839,42.84522 23.00287,22.91491 42.98592,43.62341 44.40679,46.01888 2.96837,5.00446 3.33476,11.22609 0.92844,15.76576 -1.78428,3.36618 -181.70901,183.41688 -183.17164,183.29989 -0.54285,-0.0434 -1.57858,-0.31561 -2.30162,-0.60487 z"
       id="path3025"
       inkscape:connector-curvature="0" />
    <path
       style="fill:#30aee0"
       d="m 295.5,642.10171 c -4.95974,-3.12599 -87.30662,-86.37735 -88.44534,-89.41681 -1.57246,-4.1972 -1.28351,-8.32421 0.87341,-12.47474 1.06044,-2.04059 20.97294,-22.68482 44.25,-45.87606 36.37981,-36.24569 42.91864,-42.34034 46.57193,-43.40829 8.96565,-2.62089 8.50508,-2.98184 54.11289,42.40851 22.74959,22.64113 42.66209,43.16628 44.25,45.61146 3.05194,4.6996 3.6209,8.96519 1.83256,13.73912 -1.19659,3.19428 -84.99204,87.68422 -89.14579,89.88462 -3.80805,2.01728 -10.7153,1.79131 -14.29966,-0.46781 z M 445.46378,493.00048 c -2.56608,-1.27022 -19.37576,-17.38751 -46.15014,-44.24921 -46.42348,-46.5749 -46.00575,-46.04536 -43.38794,-55.00127 1.06899,-3.65716 7.19087,-10.2125 43.88739,-46.99477 23.45481,-23.50963 44.07252,-43.42213 45.81714,-44.25 5.01832,-2.38135 10.36271,-1.90425 15.42399,1.37692 5.77547,3.74417 84.21573,82.62738 86.33068,86.81819 2.07934,4.12023 2.0697,11.16706 -0.0196,14.32715 -3.28369,4.96665 -84.97613,86.16524 -88.57547,88.04001 -4.72244,2.45976 -8.25741,2.44198 -13.32606,-0.067 z M 95.949776,446.37442 C 58.858896,409.22078 54.066582,404.0647 53.440881,400.63875 c -0.486944,-2.6662 -0.232356,-4.83269 0.822584,-7 C 56.537942,388.96597 136.75627,308 139.11142,308 c 1.16027,0 2.32948,1.02945 2.91333,2.5651 0.60623,1.5945 0.96967,34.60867 0.96051,87.25 -0.0152,87.16848 -0.0823,88.73361 -3.85853,89.98035 -0.81804,0.27008 -18.27482,-16.47676 -43.176954,-41.42103 z M 210.78518,434.75 c -1.7855,-3.12593 -2.49608,-186.47044 -0.75478,-194.75 1.15661,-5.49945 1.16072,-5.50401 41.31316,-45.82223 23.25681,-23.35282 41.80734,-41.17918 44.07926,-42.35849 4.90701,-2.54713 10.25887,-2.00487 15.4041,1.56078 2.02442,1.40292 22.19894,21.12883 44.83228,43.83535 36.89254,37.01183 41.27468,41.74623 42.34139,45.74508 2.52735,9.47442 7.52037,3.85853 -91.8334,103.28951 -49.87373,49.9125 -91.44841,90.75 -92.38817,90.75 -0.93976,0 -2.28699,-1.0125 -2.99384,-2.25 z"
       id="path3023"
       inkscape:connector-curvature="0" />
    <path
       style="fill:#2eaddf"
       d="m 298.5,642.4491 c -3.679,-1.88681 -88.06269,-85.88105 -90.06511,-89.64944 -1.90552,-3.58602 -1.81783,-8.77546 0.19985,-11.82715 2.3681,-3.58172 82.13488,-83.63201 86.7653,-87.0737 C 298.055,451.92544 300.48127,451 303,451 c 2.51873,0 4.945,0.92544 7.59996,2.89881 4.63042,3.44169 84.3972,83.49198 86.7653,87.0737 2.01606,3.04923 2.10564,8.23793 0.20419,11.82715 -2.20101,4.1547 -87.69073,88.94961 -90.88455,90.1459 -3.70239,1.38679 -4.62156,1.33103 -8.1849,-0.49646 z m 12.09996,-3.33791 c 2.14502,-1.58885 22.42736,-21.50135 45.07187,-44.25 44.71514,-44.9208 44.3285,-44.43249 41.27332,-52.12786 -1.56194,-3.93417 -80.41798,-83.66569 -86.89093,-87.8556 -5.59675,-3.62275 -8.5183,-3.62084 -14.10844,0.009 -5.80282,3.76816 -84.24682,82.64241 -86.33984,86.81339 -2.05351,4.09225 -2.04307,8.1935 0.0288,11.32715 2.36847,3.58221 81.13559,82.6326 85.76528,86.07372 5.21242,3.87424 9.97875,3.87737 15.19992,0.01 z M 444.94578,491.11297 c -5.80412,-3.76911 -85.24746,-83.64301 -87.33997,-87.81331 -2.36216,-4.70773 -1.98461,-8.48907 1.288,-12.89962 1.5916,-2.14502 21.7291,-22.63678 44.75,-45.53723 45.59327,-45.35471 45.67045,-45.41639 53.02044,-42.3731 5.11108,2.11626 88.2293,85.29316 90.7431,90.80716 3.36473,7.38051 4.06384,6.50745 -43.26208,54.02668 -24.0049,24.10295 -44.86042,44.46545 -46.34561,45.25 -4.09649,2.16397 -7.94597,1.72655 -12.85388,-1.46058 z m 12.84406,-0.0455 c 3.59964,-1.8749 84.29223,-82.07416 87.57545,-87.04003 2.01764,-3.05169 2.10533,-8.24113 0.19984,-11.82715 -2.53657,-4.77368 -85.72357,-86.99373 -89.56513,-88.52405 -7.13836,-2.84362 -7.248,-2.75557 -51.86758,41.65236 -22.75217,22.64424 -42.66467,43.17195 -44.25,45.61713 -3.21489,4.95858 -3.56931,7.86088 -1.44753,11.85388 1.61398,3.03737 85.95004,87.3627 89.06511,89.05378 2.97646,1.61583 6.14306,1.37397 10.28984,-0.78592 z M 96.212514,444.67773 C 55.55274,403.91223 54,402.21685 54,398.58753 54,395.0008 55.390892,393.39326 82.922674,365.1598 132.16895,314.65843 138.63454,308.45181 140.43782,309.94839 141.83189,311.10537 142,320.49366 142,397.18819 142,479.67482 141.76978,487 139.17733,487 138.76356,487 119.4294,467.95498 96.212514,444.67773 z M 140.36971,482.75 c 0.33164,-1.2375 0.60913,-39.85149 0.61664,-85.80887 0.0108,-66.2123 -0.25135,-83.92129 -1.26289,-85.30464 -1.14132,-1.56085 -5.57282,2.62935 -41.837007,39.55887 -22.308262,22.71755 -41.083822,42.28756 -41.723465,43.4889 -2.740601,5.14724 -2.567507,5.35433 40.570967,48.53803 C 119.68763,466.20003 138.76015,485 139.11732,485 c 0.35718,0 0.92076,-1.0125 1.25239,-2.25 z m 71.50273,-48.40344 c -1.1372,-1.37003 -1.42348,-17.86718 -1.67022,-96.25 -0.21478,-68.22661 0.0178,-95.71161 0.83444,-98.59656 0.94816,-3.34973 7.74308,-10.63594 41.79778,-44.81982 22.36606,-22.4509 41.88071,-41.4634 43.3659,-42.25 4.09353,-2.16806 7.94384,-1.73167 12.85388,1.45685 5.80412,3.76911 85.24746,83.64301 87.33997,87.81331 2.05305,4.09167 2.04295,8.19306 -0.0279,11.32715 C 394.49068,255.86614 214.83008,436 213.87452,436 c -0.3463,0 -1.24723,-0.74405 -2.00208,-1.65344 z m 93.33901,-90.03355 c 64.22413,-64.29765 89.1518,-89.87673 90.30671,-92.6666 3.09851,-7.48497 3.75889,-6.66128 -42.86549,-53.46586 -23.73397,-23.8257 -44.36782,-43.9632 -45.85301,-44.75 -3.62451,-1.92014 -6.16258,-1.80208 -10.5895,0.4926 -2.04059,1.05774 -21.55539,19.84524 -43.36622,41.75 -33.4796,33.62378 -39.82558,40.44985 -40.74443,43.82685 -1.52932,5.62066 -1.5357,187.95029 -0.007,192.33631 0.87425,2.50787 1.42418,2.95027 2.75,2.21223 0.91147,-0.50738 41.57737,-40.88837 90.36867,-89.73553 z"
       id="path3021"
       inkscape:connector-curvature="0" />
  </g>
</svg>
