<?xml version="1.0" encoding="utf-8"?>
<!-- Generator: Adobe Illustrator 15.0.2, SVG Export Plug-In . SVG Version: 6.00 Build 0)  -->
<!DOCTYPE svg PUBLIC "-//W3C//DTD SVG 1.1//EN" "http://www.w3.org/Graphics/SVG/1.1/DTD/svg11.dtd">
<svg version="1.1" id="Ebene_1" xmlns="http://www.w3.org/2000/svg" xmlns:xlink="http://www.w3.org/1999/xlink" x="0px" y="0px"
	 width="841.89px" height="595.275px" viewBox="0 0 841.89 595.275" enable-background="new 0 0 841.89 595.275"
	 xml:space="preserve">
<g>
	<g>
		<path fill-rule="evenodd" clip-rule="evenodd" d="M502.527,236.387c0.955,0.061,1.912,0.119,2.867,0.186
			c7.334,0.506,14.344,2.226,20.895,5.629c4.678,2.433,8.826,5.58,12.529,9.334c4.018,4.076,7.342,8.645,9.846,13.8
			c1.836,3.784,3.111,7.754,3.994,11.86c1.082,5.034,1.438,10.131,1.225,15.258c-0.346,8.226-2.166,16.091-6.045,23.411
			c-2.707,5.106-6.234,9.588-10.432,13.55c-6.729,6.355-14.615,10.499-23.676,12.42c-3.354,0.709-6.736,1.154-10.162,1.262
			c-0.156,0.006-0.309,0.05-0.465,0.076h-4.031c-0.877-0.063-1.754-0.123-2.627-0.187c-10.494-0.76-20.072-4.003-28.371-10.606
			c-6.551-5.211-11.68-11.571-15.18-19.203c-1.779-3.879-2.969-7.946-3.762-12.134c-0.898-4.737-1.182-9.52-0.943-14.324
			c0.506-10.118,3.17-19.563,9.041-27.935c6.869-9.793,15.852-16.758,27.447-20.125c3.535-1.026,7.137-1.71,10.809-1.992
			c1.164-0.091,2.332-0.136,3.496-0.207c0.191-0.011,0.379-0.047,0.568-0.073H502.527z M500.933,329.445
			c3.73-0.031,7.34-0.336,10.881-1.211c7.711-1.904,14.125-5.905,19.221-12.005c5.205-6.225,7.912-13.459,8.646-21.479
			c0.252-2.745,0.281-5.495,0.117-8.248c-0.178-2.987-0.57-5.945-1.363-8.835c-2.477-9.025-7.545-16.226-15.332-21.436
			c-5.826-3.893-12.342-5.676-19.293-6.021c-3.799-0.186-7.576-0.015-11.32,0.665c-6.545,1.189-12.369,3.891-17.387,8.287
			c-4.865,4.265-8.383,9.443-10.559,15.534c-1.65,4.608-2.309,9.379-2.377,14.251c-0.057,3.785,0.209,7.544,1.033,11.241
			c1.492,6.673,4.492,12.564,9.176,17.585c4.135,4.429,9.053,7.616,14.781,9.567C491.656,328.874,496.302,329.395,500.933,329.445"
			/>
		<path fill-rule="evenodd" clip-rule="evenodd" d="M692.285,340.774c-0.395,0.953-0.697,1.147-1.775,1.147
			c-3.52,0-7.041,0.002-10.564,0c-1.24,0-1.697-0.46-1.697-1.708v-100.83c0-1.293,0.455-1.745,1.768-1.746
			c3.521,0,7.043-0.012,10.561,0.019c0.436,0.003,0.91,0.175,1.281,0.405c0.225,0.14,0.291,0.537,0.428,0.821V340.774z"/>
		<path fill-rule="evenodd" clip-rule="evenodd" d="M405.102,279.938c1.776,2.358,3.536,4.696,5.294,7.034
			c3.729,4.957,7.46,9.914,11.191,14.873c4.798,6.378,9.593,12.752,14.392,19.127c4.701,6.248,9.4,12.498,14.107,18.74
			c0.35,0.46,0.5,0.929,0.25,1.462c-0.254,0.539-0.746,0.713-1.301,0.745c-0.254,0.015-0.51,0.002-0.768,0.002
			c-4.338,0-8.674-0.003-13.012,0.006c-0.742,0.001-1.285-0.248-1.75-0.866c-8.18-10.933-16.378-21.854-24.574-32.779
			c-4.654-6.201-9.311-12.402-13.968-18.604c-0.037-0.052-0.082-0.097-0.148-0.175c-0.565,0.526-1.126,1.049-1.685,1.569
			c-3.775,3.528-7.548,7.06-11.322,10.591c-2.081,1.943-4.162,3.888-6.254,5.819c-0.27,0.248-0.381,0.495-0.381,0.863
			c0.01,10.562,0.008,21.127,0.008,31.688c0,0.127,0.004,0.256,0,0.385c-0.027,0.967-0.52,1.494-1.487,1.498
			c-3.698,0.014-7.394,0.011-11.091,0.001c-0.938-0.004-1.432-0.532-1.451-1.473c-0.002-0.11,0-0.224,0-0.336V239.475v-0.096
			c0-1.274,0.46-1.739,1.724-1.739c3.377-0.001,6.753-0.001,10.131-0.001c0.223,0,0.448-0.007,0.672,0.001
			c0.978,0.045,1.458,0.527,1.501,1.5c0.007,0.145,0.001,0.289,0.001,0.432v48.783v0.676c0.838-0.782,1.595-1.484,2.347-2.19
			c4.458-4.182,8.912-8.367,13.372-12.547c5.848-5.48,11.7-10.958,17.549-16.44c4.902-4.597,9.801-9.197,14.7-13.795
			c2.066-1.939,4.138-3.87,6.197-5.814c0.43-0.406,0.92-0.605,1.509-0.605c5.169,0.001,10.339,0,15.509,0.001
			c0.881,0,1.377,0.32,1.563,0.979c0.154,0.544-0.055,0.967-0.436,1.331c-1.498,1.423-2.992,2.845-4.492,4.261
			c-2.654,2.502-5.316,5.001-7.969,7.503c-3.682,3.468-7.359,6.933-11.035,10.405c-3.771,3.557-7.535,7.12-11.305,10.675
			C410.177,275.167,407.658,277.531,405.102,279.938"/>
		<path fill-rule="evenodd" clip-rule="evenodd" d="M569.923,289.792v-50.223c0-0.146,0-0.289,0.002-0.434
			c0.02-0.948,0.498-1.442,1.438-1.496c0.064-0.004,0.129-0.001,0.191-0.001c14.359,0.001,28.715-0.034,43.072,0.021
			c6.604,0.023,12.922,1.508,18.949,4.203c5.244,2.345,9.852,5.615,13.852,9.729c6.521,6.696,10.852,14.596,12.98,23.708
			c1.227,5.247,1.732,10.559,1.621,15.934c-0.15,7.22-1.404,14.23-4.141,20.938c-2.285,5.601-5.557,10.574-9.68,14.988
			c-6.328,6.778-14.016,11.233-23.023,13.416c-3.887,0.941-7.824,1.36-11.824,1.356c-13.908-0.021-27.816-0.008-41.727-0.01
			c-0.238,0-0.479-0.017-0.713-0.052c-0.514-0.083-0.832-0.391-0.924-0.902c-0.049-0.266-0.07-0.539-0.07-0.807
			C569.923,323.37,569.923,306.582,569.923,289.792 M583.97,328.499h0.619c9.348,0,18.693,0.008,28.041-0.011
			c1.676-0.003,3.359-0.072,5.029-0.203c3.473-0.273,6.783-1.194,9.949-2.643c4.139-1.896,7.615-4.656,10.609-8.066
			c2.791-3.178,4.996-6.714,6.621-10.612c1.73-4.151,2.66-8.482,3.004-12.96c0.316-4.087,0.189-8.153-0.426-12.2
			c-0.729-4.781-2.285-9.294-4.689-13.496c-2.672-4.673-6.121-8.674-10.549-11.765c-5.301-3.702-11.254-5.423-17.68-5.454
			c-10.004-0.048-20.008-0.015-30.01-0.017h-0.52V328.499z"/>
	</g>
	<g>
		<path fill-rule="evenodd" clip-rule="evenodd" fill="#31AFE1" d="M313.057,291.184c-0.602,1.953-1.921,3.383-3.333,4.79
			c-9.465,9.433-18.9,18.897-28.345,28.349c-3.403,3.405-7.04,3.396-10.457-0.024c-9.748-9.755-19.497-19.51-29.24-29.267
			c-3.32-3.323-3.318-6.953,0.01-10.283c9.799-9.815,19.601-19.625,29.404-29.433c3.189-3.192,6.937-3.194,10.126-0.004
			c9.503,9.505,18.992,19.023,28.513,28.512c1.413,1.407,2.728,2.842,3.323,4.797V291.184z"/>
		<path fill-rule="evenodd" clip-rule="evenodd" fill="#31AFE1" d="M219.101,382.575c-1.944-0.617-3.352-1.962-4.753-3.372
			c-9.425-9.474-18.878-18.916-28.322-28.371c-3.379-3.384-3.382-6.993-0.011-10.369c9.773-9.781,19.547-19.563,29.324-29.343
			c3.25-3.251,6.974-3.264,10.206-0.029c9.775,9.779,19.549,19.563,29.321,29.347c3.357,3.362,3.366,7.045,0.024,10.389
			c-9.526,9.538-19.066,19.062-28.57,28.617c-1.36,1.366-2.759,2.596-4.655,3.132H219.101z"/>
		<path fill-rule="evenodd" clip-rule="evenodd" fill="#31AFE1" d="M184.799,266.464c0-10.877,0.098-21.754-0.063-32.628
			c-0.045-3.147,0.706-5.605,3.11-7.682c1.932-1.671,3.647-3.599,5.458-5.414c7.166-7.173,14.329-14.344,21.497-21.515
			c3.37-3.37,7.006-3.367,10.374,0.002c9.749,9.751,19.495,19.505,29.243,29.259c3.349,3.353,3.346,7.037-0.002,10.389
			c-11.527,11.543-23.059,23.082-34.589,34.621c-10.182,10.194-20.362,20.386-30.545,30.576c-1.887,1.889-3.559,1.448-4.244-1.169
			c-0.211-0.81-0.229-1.685-0.229-2.532C184.795,289.07,184.799,277.766,184.799,266.464"/>
		<path fill-rule="evenodd" clip-rule="evenodd" fill="#31AFE1" d="M161.487,290.03c0,9.98,0.014,19.964-0.021,29.944
			c-0.004,0.947-0.154,1.951-0.494,2.832c-0.666,1.732-1.916,1.947-3.224,0.641c-4.591-4.582-9.169-9.179-13.75-13.768
			c-5.296-5.304-10.594-10.609-15.887-15.917c-2.191-2.197-2.2-5.245-0.018-7.453c9.748-9.859,19.498-19.717,29.252-29.574
			c0.645-0.651,1.252-1.535,2.349-1.121c1.047,0.396,1.461,1.341,1.609,2.388c0.094,0.649,0.167,1.31,0.168,1.965
			c0.01,10.021,0.006,20.041,0.006,30.063H161.487z"/>
	</g>
</g>
<g>
	<path d="M705.784,239.297h-2.541v6.49h-0.825v-6.49h-2.54v-0.792h5.906V239.297z"/>
	<path d="M713.914,238.505v7.282h-0.825v-6.028l-2.695,3.465l-2.738-3.465v6.028h-0.825v-7.282h0.957l2.606,3.454l2.563-3.454
		H713.914z"/>
</g>
</svg>
