<?xml version="1.0" encoding="UTF-8" standalone="no"?>
<!-- Created with Inkscape (http://www.inkscape.org/) -->

<svg
   xmlns:dc="http://purl.org/dc/elements/1.1/"
   xmlns:cc="http://creativecommons.org/ns#"
   xmlns:rdf="http://www.w3.org/1999/02/22-rdf-syntax-ns#"
   xmlns:svg="http://www.w3.org/2000/svg"
   xmlns="http://www.w3.org/2000/svg"
   xmlns:sodipodi="http://sodipodi.sourceforge.net/DTD/sodipodi-0.dtd"
   xmlns:inkscape="http://www.inkscape.org/namespaces/inkscape"
   id="svg3065"
   version="1.1"
   inkscape:version="0.91 r13725"
   viewBox="0 0 2000 2000"
   preserveAspectRatio="xMidYMid"
   xml:space="preserve"
   sodipodi:docname="KodiPassion-square.svg"><metadata
     id="metadata3071"><rdf:RDF><cc:Work
         rdf:about=""><dc:format>image/svg+xml</dc:format><dc:type
           rdf:resource="http://purl.org/dc/dcmitype/StillImage" /><dc:title /></cc:Work></rdf:RDF></metadata><defs
     id="defs3069" /><sodipodi:namedview
     pagecolor="#ffffff"
     bordercolor="#666666"
     borderopacity="1"
     objecttolerance="10"
     gridtolerance="10"
     guidetolerance="10"
     inkscape:pageopacity="0"
     inkscape:pageshadow="2"
     inkscape:window-width="1920"
     inkscape:window-height="1017"
     id="namedview3067"
     showgrid="false"
     inkscape:zoom="0.4"
     inkscape:cx="1504.1042"
     inkscape:cy="1006.434"
     inkscape:window-x="-8"
     inkscape:window-y="-8"
     inkscape:window-maximized="1"
     inkscape:current-layer="svg3065"
     fit-margin-top="0"
     fit-margin-left="0"
     fit-margin-right="0"
     fit-margin-bottom="0" /><g
     id="g3075"><path
       style="fill:#31afe1"
       d="m 740.4788,1492.7083 c -3.31166,-1.7855 -7.58666,-4.3195 -9.5,-5.6312 -4.44083,-3.0445 -199.02928,-197.0735 -207.63454,-207.0376 -3.5437,-4.1033 -8.10836,-10.83 -10.14368,-14.9482 -3.48657,-7.0545 -3.70058,-8.04 -3.70058,-17.0394 0,-8.6994 0.28964,-10.1635 3.24538,-16.4043 1.78496,-3.7688 5.46814,-9.6188 8.18485,-13 2.71671,-3.3812 50.30629,-51.4461 105.75462,-106.811 73.63681,-73.5259 102.55485,-101.7734 107.26837,-104.7811 8.94804,-5.7097 15.31071,-7.38314 26.10901,-6.8669 7.64176,0.3654 9.75859,0.9054 16.59828,4.2342 7.70925,3.752 9.57824,5.5535 112.50339,108.4463 108.00453,107.9705 110.45289,110.5892 114.4787,122.444 2.3123,6.8088 2.3123,18.565 0,25.3738 -3.98598,11.7375 -6.86318,14.8298 -109.4914,117.6754 C 839.34304,1433.2866 791.125,1480.9437 787,1484.267 c -4.125,3.3233 -10.2,7.3224 -13.5,8.8869 -5.4236,2.5713 -7.00871,2.8424 -16.5,2.8226 -9.92018,-0.021 -10.8325,-0.2012 -16.5212,-3.2682 z m 377.4983,-371.9841 c -3.5876,-1.2233 -9.4376,-4.3276 -13,-6.8985 C 1095.689,1107.1228 894.11085,904.98642 889.74746,898 c -5.6066,-8.97699 -7.24771,-14.43111 -7.24541,-24.07952 0.002,-8.10051 0.24598,-9.07757 4.37118,-17.5 L 891.24236,847.5 995.87118,742.70159 c 58.79292,-58.88826 106.99452,-106.37758 110.02902,-108.40314 14.8226,-9.89436 29.821,-10.7242 45.5998,-2.52298 3.7768,1.96303 30.4013,27.93487 108.8296,106.16167 57.1062,56.95957 105.8497,106.15644 108.3188,109.32636 2.4691,3.16993 5.8083,8.67255 7.4204,12.22805 2.5383,5.59796 2.9312,7.65841 2.9312,15.3707 0,8.3712 -0.237,9.37959 -3.945,16.78805 -5.6313,11.25092 -14.6697,20.72209 -121.1928,126.9953 -66.4541,66.2982 -94.1653,93.301 -98.7901,96.2647 -12.4663,7.9889 -24.9694,9.9485 -37.095,5.8139 z M 343,1104.4621 C 340.75438,1103.4756 302.76467,1066.0086 237,999.92064 120.73883,883.08789 127.5,890.795 127.5,875.10082 c 0,-14.87735 -0.92202,-13.71484 57.97842,-73.10082 28.09342,-28.325 74.72081,-75.39423 103.61644,-104.59828 37.06179,-37.45739 53.32805,-53.24941 55.22132,-53.61133 1.4761,-0.28218 3.85412,-0.28933 5.28449,-0.0159 4.02346,0.76914 10.0039,7.10185 11.54543,12.22551 1.1203,3.72356 1.3539,41.42405 1.3539,218.5 l 0,214 -2.25288,5.5657 c -3.96887,9.8049 -10.13401,13.5212 -17.24712,10.3964 z M 530,977.29377 c -2.3318,-0.8524 -6.0461,-4.51714 -7.59456,-7.49323 -4.43062,-8.5155 -4.28245,-0.12937 -4.41785,-250.03873 C 517.84604,458.51001 517.34364,479.1314 524.19435,465 c 2.8789,-5.93849 11.49408,-14.86663 99.72838,-103.35112 53.1175,-53.26812 99.16026,-98.85345 102.31725,-101.30074 3.15699,-2.44729 8.33199,-5.66428 11.5,-7.14888 C 742.90336,250.7796 744.6394,250.5 754.5,250.5 c 10.54677,0 11.28355,0.14224 17.88189,3.45221 3.99812,2.0056 10.70271,6.85674 16,11.57689 16.11025,14.35502 202.93013,203.25378 206.74349,209.04408 9.99232,15.1726 9.75332,31.95097 -0.68548,48.10563 -5.29145,8.18887 -445.02722,448.36198 -451.9399,452.38937 -4.68611,2.73017 -9.01248,3.50047 -12.5,2.22559 z"
       id="path3089"
       inkscape:connector-curvature="0"
       sodipodi:nodetypes="cssssssssssssssssccssssscssssscsssssssssssssscssssssssssssssss" /><path
       style="fill:#FFFFFF"
       d="m 1217.1629,1296.25 0.1629,-71.75 83.3371,-82.9933 83.3371,-82.9932 0,154.7432 0,154.7433 -83.5,0 -83.5,0 z M 1446,997.23707 c 0,-0.41962 6.5556,-7.28212 14.568,-15.25 16.172,-16.08223 22.5191,-23.56705 27.5488,-32.48707 l 3.3832,-6 0.5,-46 0.5,-46 33.5,-0.60064 c 33.3811,-0.5985 40.0428,-1.18597 55.8109,-4.92177 30.6802,-7.26877 55.9671,-22.30463 72.2265,-42.94669 22.8744,-29.04017 31.947,-61.71075 31.9439,-115.0309 0,-33.02821 -2.8216,-54.1188 -10.0614,-75.25593 -6.7452,-19.69287 -16.4883,-35.521 -30.3311,-49.2739 -14.0205,-13.9295 -29.2434,-23.08827 -49.6319,-29.86065 -26.9386,-8.94811 -35.6068,-9.58753 -130.1355,-9.59953 -70.2013,-0.009 -78.8479,0.15932 -80.25,1.56144 -1.4029,1.40292 -1.5714,10.32947 -1.5714,83.24327 l 0,81.67184 -83.3371,-82.99327 -83.3371,-82.99327 -0.1629,-73.2934 -0.1629,-73.2934 178.75,0.36747 c 160.0758,0.32908 180.2126,0.54385 192.75,2.05577 42.4367,5.11759 68.0369,10.45269 96,20.00646 40.2537,13.75295 71.0664,32.34663 97.8716,59.05995 41.4646,41.32235 63.9994,94.21159 72.2612,169.59715 1.3313,12.14786 1.699,24.7995 1.7,58.5 0,37.92598 -0.2588,45.24201 -2.2035,62 -8.8141,75.95393 -32.7394,129.67399 -76.0072,170.66139 -51.035,48.34518 -123.7746,73.13461 -225.4303,76.82596 C 1520.5177,998.15566 1446,998.33008 1446,997.23707 Z"
       id="path3077"
       inkscape:connector-curvature="0"
       sodipodi:nodetypes="cccccccccssscccssscsssssscccccssssscssss" /></g><g
     style="font-style:normal;font-variant:normal;font-weight:bold;font-stretch:normal;font-size:40px;line-height:125%;font-family:'Cooper Hewitt';-inkscape-font-specification:'Cooper Hewitt Bold';letter-spacing:0px;word-spacing:0px;fill:#FFFFFF;fill-opacity:1;stroke:none;stroke-width:1px;stroke-linecap:butt;stroke-linejoin:miter;stroke-opacity:1"
     id="text3562"><path
       d="m 320.04883,1767.5 -74.58496,-83.7402 q -2.0752,-2.3194 -2.92969,-4.0284 l -0.48828,0 0,87.7686 -12.08496,0 0,-175.0488 12.08496,0 0,82.5195 0.48828,0 q 1.46484,-2.5635 3.17383,-4.2725 l 70.80078,-78.247 15.74707,0 -76.78223,84.8388 81.54297,90.21 -16.96777,0 z"
       style="font-style:normal;font-variant:normal;font-weight:300;font-stretch:normal;font-size:250px;font-family:'Segoe UI';-inkscape-font-specification:'Segoe UI Light'"
       id="path3567" /><path
       d="m 417.2168,1770.5518 q -37.10938,0 -59.2041,-24.6582 -21.97266,-24.6582 -21.97266,-64.087 0,-41.8701 22.58301,-67.0166 22.70507,-25.2685 61.88965,-25.2685 35.40039,0 57.25097,24.292 21.97266,24.1699 21.97266,63.4765 0,43.4571 -22.46094,68.3594 -22.46094,24.9024 -60.05859,24.9024 z m 1.2207,-170.044 q -30.51758,0 -50.29297,22.0947 -19.65332,22.0948 -19.65332,57.8614 0,36.1328 18.67676,57.6172 18.67676,21.3623 49.80469,21.3623 32.4707,0 51.3916,-21.1182 18.9209,-21.2402 18.9209,-59.082 0,-37.1094 -18.55469,-57.8614 -18.43262,-20.874 -50.29297,-20.874 z"
       style="font-style:normal;font-variant:normal;font-weight:300;font-stretch:normal;font-size:250px;font-family:'Segoe UI';-inkscape-font-specification:'Segoe UI Light'"
       id="path3569" /><path
       d="m 535.625,1767.5 0,-175.0488 43.82324,0 q 43.5791,0 66.28418,21.7285 22.70508,21.7285 22.70508,63.3545 0,40.039 -24.41406,65.0635 -24.29199,24.9023 -67.13867,24.9023 l -41.25977,0 z m 12.08496,-163.9404 0,152.9541 27.46582,0 q 38.94043,0 59.81445,-20.1416 20.87403,-20.2637 20.87403,-58.3496 0,-74.4629 -78.24707,-74.4629 l -29.90723,0 z"
       style="font-style:normal;font-variant:normal;font-weight:300;font-stretch:normal;font-size:250px;font-family:'Segoe UI';-inkscape-font-specification:'Segoe UI Light'"
       id="path3571" /><path
       d="m 704.08203,1767.5 0,-175.0488 12.08496,0 0,175.0488 -12.08496,0 z"
       style="font-style:normal;font-variant:normal;font-weight:300;font-stretch:normal;font-size:250px;font-family:'Segoe UI';-inkscape-font-specification:'Segoe UI Light'"
       id="path3573" /><path
       d="m 910.01465,1697.3096 0,70.1904 -12.08496,0 0,-175.0488 42.23633,0 q 26.97753,0 41.25976,12.5732 14.28223,12.4512 14.28223,36.499 0,24.4141 -15.99121,40.1612 -15.86914,15.625 -44.55567,15.625 l -25.14648,0 z m 0,-93.75 0,82.6416 24.90234,0 q 23.68164,0 36.01074,-11.2305 12.32911,-11.3525 12.32911,-31.9824 0,-39.4287 -45.28809,-39.4287 l -27.9541,0 z"
       style="font-style:normal;font-variant:normal;font-weight:300;font-stretch:normal;font-size:250px;font-family:'Segoe UI';-inkscape-font-specification:'Segoe UI Light'"
       id="path3575" /><path
       d="m 1118.877,1767.5 -20.0196,-54.4434 -75.9277,0 -20.0195,54.4434 -13.30571,0 66.04001,-175.0488 11.4746,0 65.3077,175.0488 -13.5498,0 z m -53.711,-146.4844 q -1.3428,-3.6621 -2.1972,-7.2021 -0.8545,-3.0518 -1.8311,-6.1035 l -0.4883,0 q -2.0752,8.0566 -4.0283,13.0615 l -29.419,81.1767 67.5049,0 -29.541,-80.9326 z"
       style="font-style:normal;font-variant:normal;font-weight:300;font-stretch:normal;font-size:250px;font-family:'Segoe UI';-inkscape-font-specification:'Segoe UI Light'"
       id="path3577" /><path
       d="m 1156.5967,1761.2744 0,-13.7939 q 18.7988,11.9629 38.0859,11.9629 20.5078,0 31.1279,-8.4229 10.6202,-8.5449 10.6202,-23.8037 0,-13.4277 -7.2022,-21.3623 -7.0801,-8.0566 -30.8838,-21.8506 -26.6113,-15.5029 -33.6914,-25.8789 -7.0801,-10.498 -7.0801,-24.1699 0,-18.5547 14.4043,-31.4942 14.4043,-12.9394 38.4522,-12.9394 15.625,0 31.25,5.249 l 0,12.6953 q -15.3809,-6.958 -32.8369,-6.958 -17.8223,0 -28.3203,9.0332 -10.376,9.0332 -10.376,22.9492 0,13.4278 7.0801,21.3623 7.2021,7.9346 30.8838,21.6065 24.5361,13.916 32.5927,24.7803 8.1787,10.7421 8.1787,24.7802 0,20.1416 -14.038,32.8369 -13.9161,12.6954 -39.4288,12.6954 -9.0332,0 -20.874,-2.8077 -11.7187,-2.8076 -17.9443,-6.4697 z"
       style="font-style:normal;font-variant:normal;font-weight:300;font-stretch:normal;font-size:250px;font-family:'Segoe UI';-inkscape-font-specification:'Segoe UI Light'"
       id="path3579" /><path
       d="m 1281.1084,1761.2744 0,-13.7939 q 18.7988,11.9629 38.0859,11.9629 20.5078,0 31.128,-8.4229 10.6201,-8.5449 10.6201,-23.8037 0,-13.4277 -7.2022,-21.3623 -7.08,-8.0566 -30.8838,-21.8506 -26.6113,-15.5029 -33.6914,-25.8789 -7.08,-10.498 -7.08,-24.1699 0,-18.5547 14.4043,-31.4942 14.4043,-12.9394 38.4521,-12.9394 15.625,0 31.25,5.249 l 0,12.6953 q -15.3809,-6.958 -32.8369,-6.958 -17.8223,0 -28.3203,9.0332 -10.376,9.0332 -10.376,22.9492 0,13.4278 7.0801,21.3623 7.2021,7.9346 30.8838,21.6065 24.5361,13.916 32.5927,24.7803 8.1788,10.7421 8.1788,24.7802 0,20.1416 -14.0381,32.8369 -13.916,12.6954 -39.4287,12.6954 -9.0332,0 -20.8741,-2.8077 -11.7187,-2.8076 -17.9443,-6.4697 z"
       style="font-style:normal;font-variant:normal;font-weight:300;font-stretch:normal;font-size:250px;font-family:'Segoe UI';-inkscape-font-specification:'Segoe UI Light'"
       id="path3581" /><path
       d="m 1411.1133,1767.5 0,-175.0488 12.0849,0 0,175.0488 -12.0849,0 z"
       style="font-style:normal;font-variant:normal;font-weight:300;font-stretch:normal;font-size:250px;font-family:'Segoe UI';-inkscape-font-specification:'Segoe UI Light'"
       id="path3583" /><path
       d="m 1540.2637,1770.5518 q -37.1094,0 -59.2041,-24.6582 -21.9727,-24.6582 -21.9727,-64.087 0,-41.8701 22.583,-67.0166 22.7051,-25.2685 61.8897,-25.2685 35.4004,0 57.2509,24.292 21.9727,24.1699 21.9727,63.4765 0,43.4571 -22.4609,68.3594 -22.461,24.9024 -60.0586,24.9024 z m 1.2207,-170.044 q -30.5176,0 -50.293,22.0947 -19.6533,22.0948 -19.6533,57.8614 0,36.1328 18.6767,57.6172 18.6768,21.3623 49.8047,21.3623 32.4707,0 51.3916,-21.1182 18.9209,-21.2402 18.9209,-59.082 0,-37.1094 -18.5547,-57.8614 -18.4326,-20.874 -50.2929,-20.874 z"
       style="font-style:normal;font-variant:normal;font-weight:300;font-stretch:normal;font-size:250px;font-family:'Segoe UI';-inkscape-font-specification:'Segoe UI Light'"
       id="path3585" /><path
       d="m 1782.4512,1767.5 -104.2481,-141.4795 q -3.1738,-4.2725 -5.6152,-8.5449 l -1.5869,-2.4414 -0.4883,0 q 0.2441,3.1738 0.2441,7.6904 l 0,144.7754 -12.0849,0 0,-175.0488 9.2773,0 103.5156,140.2588 q 3.418,4.6386 7.4463,11.2304 l 0.6104,0 q -0.6104,-8.5449 -0.6104,-14.6484 l 0,-136.8408 12.085,0 0,175.0488 -8.5449,0 z"
       style="font-style:normal;font-variant:normal;font-weight:300;font-stretch:normal;font-size:250px;font-family:'Segoe UI';-inkscape-font-specification:'Segoe UI Light'"
       id="path3587" /></g></svg>