<?xml version="1.0" standalone="no"?> 
<!DOCTYPE svg PUBLIC "-//W3C//DTD SVG 1.1//EN" "http://www.w3.org/Graphics/SVG/1.1/DTD/svg11.dtd" >
<svg xmlns="http://www.w3.org/2000/svg">
<defs>
  <font id="kodipassion" horiz-adv-x="612">
    <font-face font-family="kodipassion"
      units-per-em="792" ascent="792"
      descent="0" />
    <missing-glyph horiz-adv-x="0" />
    <glyph glyph-name="check"
      unicode="&#xE001;"
      horiz-adv-x="612" d="M459.8336250000001 567.567C448.0031250000001 574.398 432.856125 570.3389999999999 426.025125 558.5085L267.7488750000001 284.35275L179.1933750000001 366.0277500000001C169.837875 376.002 154.195875 376.52175 144.221625 367.1662500000001C134.247375 357.8107500000001 133.727625 342.16875 143.083125 332.16975L256.2401250000001 227.799C265.5956250000001 217.82475 281.237625 217.3050000000001 291.211875 226.6605000000001C294.231375 229.4820000000001 468.916875 533.7337500000001 468.916875 533.7337500000001C475.723125 545.5889999999999 471.664125 560.736 459.833625 567.567z" />
    <glyph glyph-name="chevron-down"
      unicode="&#xE002;"
      horiz-adv-x="612" d="M484.101 450.45C474.4485 460.1025 458.7570000000001 460.1025 449.1045000000001 450.45L306 307.3455L162.8955000000001 450.45C153.243 460.1025 137.5515 460.1025 127.899 450.45C118.2465 440.7975 118.2465 425.106 127.899 415.4535L288.4275 254.9250000000001C293.2785 250.0245 299.664 247.6485 306 247.698C312.3855 247.698 318.7215 250.074 323.5725000000001 254.9250000000001L484.0515 415.4535C493.7534999999999 425.106 493.7534999999999 440.7975 484.101 450.45z" />
    <glyph glyph-name="chevron-left"
      unicode="&#xE003;"
      horiz-adv-x="612" d="M264.2715000000001 371.25L407.376 514.3544999999999C417.0285 524.0070000000001 417.0285 539.6985 407.376 549.351C397.7235000000001 559.0035 382.032 559.0035 372.3795 549.351L211.851 388.8225000000001C207 383.9715 204.624 377.6355 204.624 371.25S207 358.5285 211.851 353.6775L372.3795 193.1985C382.0320000000002 183.5459999999999 397.7235000000002 183.5459999999999 407.376 193.1985S417.0285000000001 218.5424999999999 407.376 228.195L264.2715000000001 371.25z" />
    <glyph glyph-name="chevron-right"
      unicode="&#xE004;"
      horiz-adv-x="612" d="M400.1489999999999 388.8225000000001L239.6205000000001 549.351C229.968 559.0035 214.2765000000001 559.0035 204.624 549.351C194.9715 539.6985 194.9715 524.0070000000001 204.624 514.3544999999999L347.7285 371.25L204.624 228.1455C194.9715 218.493 194.9715 202.8015 204.624 193.149C214.2765000000001 183.4965 229.9680000000001 183.4965 239.6205000000001 193.149L400.1489999999999 353.628C405.0495 358.5285 407.4255 364.914 407.376 371.2004999999999C407.376 377.6355 405 383.9715 400.1489999999999 388.8225000000001z" />
    <glyph glyph-name="chevron-up"
      unicode="&#xE005;"
      horiz-adv-x="612" d="M484.101 327.0465L323.5725000000001 487.575C318.7215 492.426 312.3855 494.802 306 494.802S293.2785 492.426 288.4275 487.575L127.899 327.0465C118.2465 317.394 118.2465 301.7025 127.899 292.05C137.5515000000001 282.3974999999999 153.243 282.3974999999999 162.8955000000001 292.05L306 435.1545000000001L449.1045000000001 292.05C458.7570000000001 282.3975 474.4485 282.3975 484.101 292.05S493.7534999999999 317.3940000000001 484.101 327.0465z" />
    <glyph glyph-name="close"
      unicode="&#xE006;"
      horiz-adv-x="612" d="M447.0997499999999 537.49575C437.34825 547.24725 421.55775 547.24725 411.831 537.49575L305.4802499999999 431.1450000000001L200.6144999999999 536.01075C190.9372499999999 545.6880000000001 175.2705 545.6880000000001 165.618 536.01075C155.94075 526.3335000000001 155.94075 510.6667500000001 165.618 501.0142500000001L270.48375 396.1485000000002L164.90025 290.5650000000001C155.14875 280.8135000000001 155.14875 265.023 164.90025 255.29625C174.65175 245.5695000000001 190.44225 245.5695000000001 200.169 255.29625L305.7525 360.8797500000001L410.6182500000001 256.014C420.2955 246.3367500000001 435.9622500000001 246.3367500000001 445.6147500000002 256.014C455.2920000000001 265.6912500000001 455.2920000000001 281.3580000000001 445.6147500000002 291.0105000000001L340.7490000000001 395.8762500000002L447.0997500000001 502.2270000000001C456.85125 511.9537500000001 456.85125 527.7690000000001 447.0997500000001 537.4957500000002z" />
    <glyph glyph-name="download"
      unicode="&#xE007;"
      horiz-adv-x="612" d="M492.4824291758152 195.1476463342793H414.9493064852996C405.007422481658 250.3709098698655 386.2688373587533 301.6920687623842 358.0888555668612 348.1780110319712C323.444952605366 405.437155250897 280.5642157125261 451.0748139024259 227.6652492904193 483.3944197504417C218.1050929149038 489.247576715043 208.6806619182777 487.6358378407326 201.0291436833931 479.4074867455684C193.1570717078134 470.9246505649868 192.2748567450329 461.5087024045413 198.2382905799817 451.5837840732608C199.8330637819311 449.9720451989503 208.248037273068 436.4843356718256 222.1005087559577 405.0978418036737C228.9207090451454 389.5742515932094 235.4355272318321 372.4389225084346 241.5855834627536 353.7766829111551C247.7695710383976 335.0296149520698 253.317345900498 312.8045841589461 257.8895946018315 287.0167621699781C262.4618433031649 261.0592834573984 265.0406255020617 235.2714614684303 265.0406255020617 209.8229529266855V195.1476463342793H190.2898730787767C181.1453756761097 195.1476463342793 174.3845552401863 190.3972580731537 170.0074117710062 181.2357949981256C168.8198147057248 178.0123172495046 168.4211214052373 175.2129813099127 168.4211214052373 173.2619289883788C168.4211214052373 167.3239436619717 170.4230707438547 162.149413591817 174.7832485406736 157.7383387779146L325.4808332887055 6.2348845927274C333.8109784180366 -2.0782948642426 348.1469715632195 -2.0782948642426 356.4940823649118 6.2348845927274L507.9975365500989 157.7383387779146C514.3681465217156 164.1004659133508 516.4125100412358 171.7350184758743 512.7648904835856 181.2357949981256C509.2529963048252 190.3972580731537 502.4243131794569 195.1476463342793 492.4824291758152 195.1476463342793zM340.9874578268088 52.8056552241203L243.1718738285225 150.9520698334493H285.7217801103197C298.0473410807048 150.9520698334493 306.2332779949659 159.3500776522251 307.590531783859 170.886734857816C308.6169549617094 179.6240561238151 309.1768221496278 192.7724522037165 309.1768221496278 209.8229529266855C309.1768221496278 265.8945000803299 299.2434209821668 323.1536442992556 279.7583462753709 380.8369303272104C332.2416537246292 319.1667112943823 363.5942162480587 248.8439993573608 374.3928667059391 170.0384512397579C375.9197772184437 158.9259358431961 385.1236544743747 150.9520698334493 396.2616183794784 150.9520698334493H439.6004284260697L340.9874578268088 52.8056552241203zM686.1286135061318 526.7417126332136C669.824602367054 556.6012959888609 647.9558506935147 580.4380656562952 620.1236651850264 597.4885663792642C613.3628447491029 647.1979863974723 592.987072243346 690.1211374712151 559.2847640978953 726.0035345150752C519.4239168853425 768.4177154179832 465.4476302683017 792 409.3845659508381 792C364.4509827022974 792 323.4958496224495 778.4274621110694 287.3080704760885 751.45204305682C251.128774165908 724.3917956407647 225.2815723236759 689.0183687677395 209.7749477855728 645.6710758849676C201.4193541476998 646.858672950249 194.6670165479569 647.1979863974723 190.2898730787769 647.1979863974723C159.2766240025706 647.1979863974723 131.3596101322766 637.7820382370267 106.7848337171317 618.1866866598832C82.4560595512237 598.8458201681572 65.8297006372838 574.0759385208589 56.6852032346168 543.8770417179885H47.9393991324372C7.7816526535639 543.8770417179885 -26.8198361270284 528.7775933165533 -55.839618700798 498.1545547046537C-84.4776736464415 467.8708295399775 -98.7882182830826 431.3098056016708 -98.7882182830826 388.8107963369571C-98.7882182830826 350.9773469715631 -87.3788036202004 317.470144058266 -63.7965190381835 288.2043592352594C-40.0615434049163 258.6840893268356 -10.1171316874633 241.2942751566432 25.6719541584105 235.6956032774594C30.0490976275906 234.508006212178 36.4112247630268 234.083864403149 45.1570288652064 234.083864403149H190.2898730787769V278.1946125421732H45.1570288652064C39.9824987950516 278.1946125421732 36.0040486263589 278.6187543512023 33.2301611953087 279.0428961602314C8.1718631178707 282.9450008032989 -12.899501954694 295.3299416269481 -29.6022063942591 316.0280619075671C-46.2964279976437 336.7261821881862 -54.6520216355166 360.9022653028437 -54.6520216355166 388.8107963369571C-54.6520216355166 419.4338349488567 -44.710137631875 445.2216569378247 -24.4276763241044 467.1073742837252C-4.1536978525144 488.9930916296256 19.7085203234616 499.6814652171585 47.9393991324372 499.6814652171585C63.4460236705403 499.6814652171585 79.3513415091308 495.3552187650619 95.6553526482086 486.6178974990628C95.2566593477213 489.4172334386548 94.857966047234 493.7434798907514 94.857966047234 499.6814652171585C94.857966047234 527.9293096984952 104.0024634499009 552.1902211749585 122.6901515557221 572.4641996465485C141.3778396615434 592.7381781181385 163.6452846355701 603.087238258448 190.2898730787769 603.087238258448C208.9775611845981 603.087238258448 226.0789589246506 597.4885663792642 240.7881968617791 586.8001927917314C245.9542440957533 632.5226798050661 264.6504150377551 671.1195844267123 296.4525678787554 701.7426230386119C328.6703796926044 732.7049750977347 366.0372730680663 748.228565308199 409.3845659508382 748.228565308199C455.1070529641729 748.228565308199 494.4758956782521 730.753922776201 527.4741284207144 696.1439511594281C560.4808439993574 661.5339795426552 577.1835484389225 619.3742837251647 577.9724522037166 569.6648637069566C604.6170406469234 558.5523483103947 625.6035773576822 540.2294221603385 641.9924168585658 514.8657419803994C658.2031167996572 489.756546885878 666.6435387993359 461.1693889573181 666.6435387993359 429.6980667273604C666.6435387993359 391.18599046752 655.4886092218712 357.7636159160286 632.8479194558989 329.0916296256628C610.5550259733305 300.9286135061319 582.3580785090774 284.1325978685803 547.756589728485 279.0428961602314C544.5840089969475 278.5339259893965 538.612092325818 278.1946125421732 529.8662882236384 278.1946125421732H458.288116531891V234.083864403149H529.8662882236384C542.9892357949982 234.083864403149 551.7350398971778 234.508006212178 556.1037005301773 235.6956032774594C601.037283778718 242.8211856691479 638.1412092325819 264.6220746532425 667.4409254003107 301.6920687623842C696.5964333529696 338.5924061479141 710.7882182830826 381.6003855834628 710.7882182830826 429.6980667273604C710.7882182830825 464.3080383441332 702.4326246452097 496.9669576393723 686.1286135061318 526.7417126332136z" />
    <glyph glyph-name="favourites"
      unicode="&#xE008;"
      horiz-adv-x="612" d="M702 488.961L428.8095 530.64L306 792L183.1905 530.64L-90 488.961L107.62875 286.605L60.85125 0L306 135.3824999999999L551.1487500000001 0L504.3465000000001 286.605L702 488.961zM306 192.8025L122.13225 89.71875L157.22775 297.71775L-1.07325 459.3105L213.039 487.15425L306 685.278L398.1195 487.15425L611.514 456.885L454.7722500000001 296.9504999999999L487.5412500000001 88.9514999999999L306 192.8025z" />
    <glyph glyph-name="forward"
      unicode="&#xE009;"
      horiz-adv-x="612" d="M750.9829732436687 435.9456288453284L269.7373014737446 781.2345113750179C237.8374588639292 798.3459722420947 201.2914580054371 802.3971955930748 201.2631277722136 736.5010731148948V586.2091858634998L-70.5654600085848 781.2345113750179C-102.4653026184002 798.3743024753184 -139.9178709400486 798.8842466733438 -139.0113034768922 734.7445986550293V56.4621548147088C-138.1047360137358 -1.4731721276293 -99.8022606953784 -9.8589211618258 -70.5371297753612 9.0656746315638L201.2914580054371 204.1193303763055V55.5839175847759C201.3197882386608 -0.5949348976966 240.5288310201747 -9.8589211618258 269.7656317069682 9.0656746315638L751.0113034768923 354.3545571612533C771.1257690656748 368.8879668049792 772.117327228502 421.4405494348262 750.9829732436687 435.9456288453284zM257.9802546859352 77.8514808985549C257.9802546859352 91.1383602804408 257.9802546859352 315.8254399771069 257.9802546859352 315.8254399771069L-82.3225067963943 77.8514808985549V712.4487051080268L257.9802546859352 474.4747460294749C257.9802546859352 474.4747460294749 257.9802546859352 661.7942481041637 257.9802546859352 712.4487051080268L711.7172699957075 395.1500930032909L257.9802546859352 77.8514808985549z" />
    <glyph glyph-name="home"
      unicode="&#xE00A;"
      horiz-adv-x="612" d="M588.078192627824 403.9105826397146C574.3947681331747 403.9105826397146 563.8002378121283 393.3631391200952 563.8002378121283 379.6137931034483V47.7460166468489H391.6414744351962V183.2618311533888C391.6414744351962 195.9752675386444 381.0469441141498 207.0877526753865 368.2393341260405 207.0877526753865H243.7606658739596C230.067824019025 207.0877526753865 219.0400951248514 195.9752675386444 219.0400951248514 183.2618311533888V47.7460166468489H47.3145303210464V368.5954815695601C47.3145303210464 381.4030915576695 36.7294173602854 392.0447086801427 23.0365755053508 392.0447086801427C10.2383828775267 392.0447086801427 -0.3561474435196 381.4030915576695 -0.3561474435196 368.5954815695601V23.4492271105826C-0.3561474435196 10.6416171224732 10.2383828775267 0 23.0365755053508 0H243.7606658739596C256.5588585017836 0 267.1533888228301 10.6416171224732 267.1533888228301 23.4492271105826V158.9650416171225H343.9613793103448V23.4492271105826C343.9613793103448 10.6416171224732 354.5559096313912 0 368.2393341260405 0H588.0781926278241C600.8763852556481 0 611.4709155766944 10.6416171224732 611.4709155766944 23.4492271105826V379.6137931034483C611.4709155766943 393.3631391200952 600.876385255648 403.9105826397146 588.078192627824 403.9105826397146zM720.0624970273484 384.9816884661118L528.4851367419737 577.3783590963139V708.5621878715815C528.4851367419737 722.2173602853745 517.4479904875149 732.764803804994 503.7645659928655 732.764803804994C490.9569560047562 732.764803804994 480.3624256837098 722.2173602853745 480.3624256837098 708.5621878715815V625.5010701545779L322.3297027348395 784.4661117717004C317.489179548157 789.3631391200951 311.7351724137931 792 306 792C299.3795957193817 792 293.6350059453032 789.2689655172413 288.7850653983353 784.4661117717004L-108.0624970273484 387.6185493460167C-117.5834482758621 378.1070154577884 -118.2144114149822 362.8508917954815 -108.0624970273484 354.0927467300832C-99.2384304399525 343.9219976218787 -84.038810939358 344.581212841855 -74.5178596908443 354.0927467300832L306 733.7065398335315L685.632627824019 350.5141498216409C689.5879191438763 346.5588585017836 695.3419262782402 344.2986920332938 702.8475624256837 344.2986920332938C709.467966706302 344.2986920332938 715.2031391200951 346.5588585017837 720.0624970273484 350.5141498216409C728.8959809750297 359.366468489893 729.5551961950059 375.3759809750297 720.0624970273484 384.9816884661118z" />
    <glyph glyph-name="movie"
      unicode="&#xE00B;"
      horiz-adv-x="612" d="M702 452.5714285714286L532.2857142857142 339.4285714285715C532.2857142857142 373.7674285714286 516.672 404.1462857142858 492.516 424.908C550.020857142857 459.558 588.8571428571429 521.9845714285714 588.8571428571429 594C588.8571428571429 703.3525714285714 500.2097142857143 792 390.8571428571429 792S192.8571428571429 703.3525714285714 192.8571428571429 594C192.8571428571429 538.5317142857143 215.7968571428571 488.5225714285714 252.5682857142857 452.5714285714286H148.8162857142857C175.914 482.6391428571429 192.8571428571429 522.0411428571429 192.8571428571429 565.7142857142858C192.8571428571429 659.4531428571429 116.8817142857143 735.4285714285714 23.1428571428571 735.4285714285714C-70.596 735.4285714285714 -146.5714285714286 659.4531428571429 -146.5714285714286 565.7142857142858C-146.5714285714286 514.5737142857142 -123.462 469.26 -87.6805714285715 438.1457142857143C-122.6134285714286 418.8831428571429 -146.5714285714286 382.14 -146.5714285714286 339.4285714285715V113.1428571428571C-146.5714285714286 50.6597142857144 -95.9117142857143 0 -33.4285714285714 0H419.1428571428571C481.6259999999999 0 532.2857142857142 50.6597142857144 532.2857142857142 113.1428571428571V141.4285714285715L702 0C733.2557142857142 0 758.5714285714287 25.3157142857143 758.5714285714287 56.5714285714286V396C758.5714285714287 427.2557142857143 733.2557142857142 452.5714285714286 702 452.5714285714286zM-90 565.7142857142858C-90 628.1974285714285 -39.3402857142857 678.8571428571429 23.1428571428571 678.8571428571429C85.626 678.8571428571429 136.2857142857143 628.1974285714285 136.2857142857143 565.7142857142858C136.2857142857143 503.2311428571429 85.626 452.5714285714286 23.1428571428571 452.5714285714286C-39.3402857142857 452.5714285714286 -90 503.2311428571429 -90 565.7142857142858zM475.7142857142856 113.1428571428571C475.7142857142856 81.9154285714286 450.3985714285714 56.5714285714286 419.1428571428571 56.5714285714286H-33.4285714285714C-64.6842857142857 56.5714285714286 -90 81.8871428571429 -90 113.1428571428571V339.4285714285715C-90 370.6842857142858 -64.6842857142857 396 -33.4285714285714 396H419.1428571428571C450.3985714285714 396 475.7142857142856 370.6842857142858 475.7142857142856 339.4285714285715V113.1428571428571zM390.8571428571429 452.2602857142858C312.5622857142856 452.2602857142858 249.1174285714286 515.7334285714286 249.1174285714286 594C249.1174285714286 672.2948571428572 312.5905714285714 735.7397142857143 390.8571428571429 735.7397142857143S532.5968571428571 672.2948571428572 532.5968571428571 594C532.5968571428571 515.7051428571428 469.152 452.2602857142858 390.8571428571429 452.2602857142858zM702 56.5714285714286L532.2857142857142 198V282.8571428571429L702 396V56.5714285714286z" />
    <glyph glyph-name="music"
      unicode="&#xE00C;"
      horiz-adv-x="612" d="M694.0008 792C690.0144 792 686.3184 790.9704 682.9392 789.3864L245.2008000000001 686.4C230.6280000000001 686.4 218.8008000000001 674.5728 218.8008000000001 660V290.3472C163.3344000000001 326.4096 74.2080000000001 326.3568 -5.3351999999999 284.064C-105.7079999999999 230.6832000000001 -151.8551999999999 131.1551999999999 -108.4007999999999 61.8023999999999C-64.9463999999999 -7.5504 51.6888 -20.4864 152.0616 32.8944C216.7680000000001 67.2936 261.4368000000001 132.5016 271.6008 184.8000000000001C271.6008 191.6376 271.6008 639.804 271.6008 639.804L667.6007999999999 732.9696V395.9208000000001C612.1343999999999 431.9832 523.0079999999999 431.9568000000001 443.4647999999999 389.6376C343.092 336.2304000000001 296.9448 236.7288 340.3992 167.376C383.8535999999999 98.0232000000001 505.0031999999999 81.7344000000001 605.7983999999999 134.3496C681.2231999999999 173.712 714.3552 234.7752 720.4007999999999 290.3736C720.4007999999999 299.6928000000001 720.4007999999999 765.5735999999999 720.4007999999999 765.5735999999999C720.4007999999999 780.1992 708.5999999999999 792 694.0008 792zM139.6008000000001 79.2000000000001C63.1728000000001 37.7256 -24.0527999999999 36.9072 -60.8543999999999 82.5264000000001C-97.6295999999999 128.172 -65.3423999999999 198.4752000000001 11.2704000000001 239.5800000000002C87.8832000000001 280.6848000000001 155.1768000000001 279.1272000000002 200.4792000000001 245.6256000000001C250.1112000000001 208.9032000000001 204.6768000000001 114.5232000000001 139.6008000000001 79.2000000000001zM592.4136 179.8368000000001C516.8303999999999 137.5968 424.2983999999999 143.7744000000001 387.9984 189.4464000000001C351.6984 235.1448000000002 384.3288 304.9200000000001 460.9415999999999 345.3120000000002C537.5279999999999 385.7040000000001 607.5143999999998 387.3408000000001 649.3583999999998 349.9848000000001C694.3968 309.8040000000001 655.8 215.2392 592.4136 179.8368000000001z" />
    <glyph glyph-name="pause"
      unicode="&#xE00D;"
      horiz-adv-x="612" d="M192.8571428571429 792H79.7142857142858C48.4868571428572 792 23.1428571428572 766.656 23.1428571428572 735.4285714285714V56.5714285714286C23.1428571428572 25.3440000000001 48.4868571428572 0 79.7142857142858 0H192.8571428571429C224.1128571428572 0 249.4285714285715 25.3157142857143 249.4285714285715 56.5714285714286V735.4285714285714C249.4285714285715 766.656 224.1128571428572 792 192.8571428571429 792zM192.8571428571429 84.8571428571429C192.8571428571429 69.2434285714286 180.1851428571429 56.5714285714286 164.5714285714286 56.5714285714286H108.0000000000001C92.3862857142858 56.5714285714286 79.7142857142858 69.2434285714286 79.7142857142858 84.8571428571429V707.1428571428571C79.7142857142858 722.7565714285714 92.3862857142858 735.4285714285714 108.0000000000001 735.4285714285714H164.5714285714286C180.1851428571429 735.4285714285714 192.8571428571429 722.7565714285714 192.8571428571429 707.1428571428571V84.8571428571429zM532.2857142857142 792H419.1428571428572C387.8871428571429 792 362.5714285714287 766.656 362.5714285714287 735.4285714285714V56.5714285714286C362.5714285714287 25.3440000000001 387.8871428571429 0 419.1428571428572 0H532.2857142857142C563.5414285714287 0 588.8571428571429 25.3157142857143 588.8571428571429 56.5714285714286V735.4285714285714C588.8571428571429 766.656 563.5414285714287 792 532.2857142857142 792zM532.2857142857142 84.8571428571429C532.2857142857142 69.2434285714286 519.6137142857142 56.5714285714286 503.9999999999999 56.5714285714286H447.4285714285715C431.8148571428572 56.5714285714286 419.1428571428572 69.2434285714286 419.1428571428572 84.8571428571429V707.1428571428571C419.1428571428572 722.7565714285714 431.8148571428572 735.4285714285714 447.4285714285715 735.4285714285714H503.9999999999999C519.6137142857142 735.4285714285714 532.2857142857142 722.7565714285714 532.2857142857142 707.1428571428571V84.8571428571429z" />
    <glyph glyph-name="photo"
      unicode="&#xE00E;"
      horiz-adv-x="612" d="M265.4285986290938 597.4407463823305H10.4665270373192C-10.3212109672505 597.4407463823305 -27.2333968012185 580.5285605483625 -27.2333968012185 559.7408225437928V306.6888804265043C-27.2333968012185 285.9011424219346 -10.3212109672505 268.9889565879666 10.4665270373192 268.9889565879666H265.4260853008378C286.2138233054076 268.9889565879666 303.1260091393755 285.9011424219346 303.1260091393755 306.6888804265043V559.7408225437928C303.1285224676315 580.5285605483625 286.2163366336634 597.4407463823305 265.4285986290938 597.4407463823305zM10.4665270373192 572.3074638233054H265.4260853008378C272.3553313023611 572.3074638233054 277.9927265803504 566.6700685453161 277.9927265803504 559.7408225437928V505.9279512566641L151.2958492003047 390.9783701447068C148.94337395278 388.8445544554456 145.9851865955827 387.8065498857578 143.0219725818736 388.0503427265804C140.0361386138615 388.2941355674029 137.3041507996954 389.7945925361767 135.3286747905559 392.2802741812643L95.2963823305408 442.6725057121097C82.5789413556741 458.674866717441 58.6998095963442 462.0376999238386 42.0615765422697 450.167250571211L-2.1026275704494 418.6576542269612V559.7408225437928C-2.1001142421935 566.6700685453161 3.5372810357958 572.3074638233054 10.4665270373192 572.3074638233054zM265.4285986290938 294.1247524752476H10.4665270373192C3.5372810357958 294.1247524752476 -2.1001142421935 299.7621477532369 -2.1001142421935 306.6913937547601V387.7814166031988L56.6640137090633 429.7087585681645C62.4798552932217 433.8632901751713 71.1659177456208 432.6418126428027 75.61953541508 427.0370906321401L115.6518278750953 376.6448591012947C121.9979817212491 368.6575019040365 130.9931835491242 363.8118050266565 140.9836633663367 362.997486671744C141.9739146991622 362.9170601675551 142.9566260472202 362.8768469154607 143.9393373952781 362.8768469154607C152.8641660319879 362.8768469154607 161.3793221629856 366.1869002284843 168.1829017517137 372.3621477532368L277.9927265803504 471.9904798172124V306.6863670982482C277.9952399086063 299.7621477532369 272.3553313023611 294.1247524752476 265.4285986290938 294.1247524752476zM684.5487052551409 526.9343488194972L377.6713252094441 717.6532368621478C357.0771134805789 730.4511043412033 329.9030083777609 724.1150038080731 317.0950875856817 703.5132520944402L291.5672124904799 662.4354150799695H-42.7104722010662C-66.9615765422696 662.4354150799695 -86.6937166793602 642.7032749428789 -86.6937166793602 618.4521706016756V173.5528560548362C-86.6937166793602 149.3017517136328 -66.9615765422696 129.5696115765422 -42.7104722010662 129.5696115765422H314.4234196496573L403.2796268088348 74.351789794364C410.4878522467632 69.8705255140898 418.5003427265804 67.7341964965726 426.4223533891851 67.7341964965726C441.1353769992384 67.7367098248285 455.529207920792 75.1007616146229 463.8533511043412 88.4892612338156L698.6937166793603 466.3581111957349C711.4915841584159 486.9573495811119 705.1504569687738 514.128941355674 684.5487052551409 526.9343488194972zM375.2610434120335 613.0359482102056L591.8119192688499 478.4547600913937C597.6981340441736 474.7953541507997 599.5127570449353 467.0341964965727 595.8508377760853 461.147981721249L462.2774942878902 246.2232292460015C458.6206016755521 240.3395277989337 450.8594440213252 238.5223914699162 444.9707159177456 242.1817974105102L362.5863290175172 293.3833206397562V616.3183549124143C364.3054455445546 616.8511805026657 369.4401751713633 616.6526275704493 375.2610434120335 613.0359482102056zM-48.9937928408225 173.5528560548362V618.4521706016756C-48.9937928408225 621.8577303884234 -46.1160319878142 624.7354912414319 -42.7104722010662 624.7354912414319H318.6055978674791C322.011157654227 624.7354912414319 324.8889185072354 621.8577303884234 324.8889185072354 618.4521706016756V173.5528560548362C324.8889185072354 170.1472962680883 322.011157654227 167.26953541508 318.6055978674791 167.26953541508H-42.7104722010662C-46.1160319878142 167.26953541508 -48.9937928408225 170.1472962680883 -48.9937928408225 173.5528560548362zM666.6688880426505 486.261157654227L431.8310357958873 108.3923076923077C430.034006092917 105.5019801980199 426.0704874333587 104.5695354150799 423.1801599390709 106.3715917745622L354.9231911652705 148.7890327494288C359.7538080731151 155.848971820259 362.5888423457732 164.3741812642803 362.5888423457732 173.5553693830922V263.7939070830161L431.7053693830923 220.8386138613862C437.7273038842347 217.0937547600914 444.5409367859864 215.1685453160701 451.485262757045 215.1685453160701C454.3705635948211 215.1685453160701 457.2835110434121 215.5003046458493 460.1688118811883 216.1738766184311C469.9934120335112 218.4685453160702 478.3250952018279 224.4276466108149 483.6257044935264 232.9578827113482L617.1990479817213 447.8826351865956C622.4996572734196 456.4103579588729 624.1559405940594 466.5189642041128 621.8612718964205 476.3460776846916C619.5691165270375 486.1706778370145 613.6100152322925 494.4998476770755 605.0797791317594 499.8029702970298L388.528903274943 634.3841584158416C377.7567783701448 641.079664889566 366.0195354150801 643.0425742574258 356.5216679360245 640.6373191165271C351.4698781416605 649.2379284082255 343.5931073876619 655.9610814927647 334.1630997715157 659.5450875856817L349.1199162223915 683.6152322924601C350.9169459253618 686.5105864432597 354.8804645849201 687.4329779131759 357.7733054074639 685.6359482102057L664.6506854531606 494.9195734958112C667.5410129474486 493.1150038080731 668.4684310738767 489.1539984767708 666.6688880426505 486.261157654227z" />
    <glyph glyph-name="play"
      unicode="&#xE00F;"
      horiz-adv-x="612" d="M605.7780792574081 437.3106747590147L73.913745091039 783.8848982506248C42.386433416637 801.0481970724741 6.221920742592 793.3855051767226 6.221920742592 737.5694394858979V55.1374509103891C6.221920742592 -0.2827561585149 45.0160656908248 -10.1509460906819 73.913745091039 8.8502677615138L605.7780792574081 355.4244912531239C636.428846840414 377.1118886112103 635.5523027490183 417.3763655837202 605.7780792574081 437.3106747590147zM62.29246697608 77.8993216708319V714.8358443413067L566.9556586933238 396.3675830060693L62.29246697608 77.8993216708319z" />
    <glyph glyph-name="power"
      unicode="&#xE010;"
      horiz-adv-x="612" d="M305.9983329825301 792C87.6457166912229 792 -89.99833298253 614.3559503262471 -89.99833298253 396C-89.99833298253 177.644049673753 87.6457166912229 0 305.9983329825301 0C524.354283308777 0 701.99833298253 177.6440496737529 701.99833298253 395.99666596506C702.00166701747 614.3559503262471 524.357617343717 792 305.9983329825301 792zM305.9983329825301 50.0105241001895C115.2215196800673 50.0105241001895 -39.9878088823406 205.2198526625974 -39.9878088823406 396C-39.9878088823406 586.7801473374027 115.2215196800673 741.9894758998106 305.9983329825301 741.9894758998106C496.7784803199327 741.9894758998106 651.9878088823406 586.7801473374027 651.9878088823406 396C651.9911429172805 205.2198526625974 496.7818143548726 50.0105241001895 305.9983329825301 50.0105241001895zM433.9452578404546 601.5832624710588C422.2594653757104 608.9414775836666 406.819549568512 605.4307387918333 399.461334455904 593.748280362029C392.1031193432962 582.0624878972848 395.6105241001896 566.6225720900864 407.2963165649337 559.2643569774784C463.1147295306251 524.1136266049253 496.4417427909914 463.837608924437 496.4417427909914 398.0304272784678C496.4417427909914 293.02166280783 411.0104314881077 207.5936855398865 306.0016670174701 207.5936855398865C200.9929025468324 207.5936855398865 115.5649252788887 293.02499684277 115.5649252788887 398.0304272784678C115.5649252788887 463.844276994317 148.8919385392549 524.1202946748053 204.7103515049464 559.2676910124185C216.3961439696906 566.6259061250263 219.906882761524 582.0658219322248 212.548667648916 593.7516143969691C205.1904525363082 605.4374068617133 189.7505367291098 608.9448116186066 178.0647442643654 601.5899305409388C107.6132519469585 557.2272616291307 65.5544011786992 481.1312481582825 65.5544011786992 398.0304272784678C65.5544011786992 265.4458598189856 173.4204335929279 157.5831614396969 306.0016670174701 157.5831614396969C438.5862344769522 157.5831614396969 546.4522668911808 265.4491938539257 546.4522668911808 398.0304272784678C546.4522668911808 481.1245800884025 504.3934161229215 557.2205935592507 433.9452578404546 601.5832624710588zM306.0016670174701 484.5286297621554C319.8112397390023 484.5286297621554 331.0069290675648 495.7243190907178 331.0069290675648 509.5338918122501V638.9111176594402C331.0069290675648 652.7206903809724 319.8112397390023 663.9163797095348 306.0016670174701 663.9163797095348C292.1920942959378 663.9163797095348 280.9964049673754 652.7206903809724 280.9964049673754 638.9111176594402V509.53389181225C280.9964049673754 495.7243190907178 292.1920942959377 484.5286297621554 306.0016670174701 484.5286297621554z" />
    <glyph glyph-name="remotecontrol"
      unicode="&#xE011;"
      horiz-adv-x="612" d="M372.938 434.25C357.103 434.25 344.25 421.417 344.25 405.562C344.25 389.726 357.102 376.874 372.938 376.874S401.626 389.726 401.626 405.562C401.625 421.417 388.773 434.25 372.938 434.25zM248.625 415.125H191.25V472.5C191.25 483.057 182.682 491.625 172.125 491.625S153 483.057 153 472.5V415.125H95.625C85.068 415.125 76.5 406.557 76.5 396S85.068 376.875 95.625 376.875H153V319.5C153 308.943 161.568 300.375 172.125 300.375S191.25 308.943 191.25 319.5V376.875H248.625C259.182 376.875 267.75 385.443 267.75 396S259.182 415.125 248.625 415.125zM430.312 357.75C414.4770000000001 357.75 401.624 344.917 401.624 329.062C401.624 313.226 414.476 300.374 430.312 300.374S459 313.227 459 329.062S446.148 357.75 430.312 357.75zM449.438 491.625C433.603 491.625 420.75 478.773 420.75 462.937S433.602 434.249 449.438 434.249S478.126 447.101 478.126 462.937S465.273 491.625 449.438 491.625zM506.812 415.125C490.977 415.125 478.124 402.273 478.124 386.437S490.976 357.749 506.812 357.749C522.648 357.749 535.5 370.601 535.5 386.437S522.648 415.125 506.812 415.125zM497.25 568.125H114.75C51.37 568.125 0 516.755 0 453.375V338.625C0 275.245 51.37 223.875 114.75 223.875H497.25C560.63 223.875 612 275.245 612 338.625V453.375C612 516.755 560.63 568.125 497.25 568.125zM573.75 338.625C573.75 296.378 539.497 262.125 497.25 262.125H114.75C72.503 262.125 38.25 296.378 38.25 338.625V453.375C38.25 495.622 72.503 529.875 114.75 529.875H497.25C539.497 529.875 573.75 495.622 573.75 453.375V338.625z" />
    <glyph glyph-name="rewind"
      unicode="&#xE012;"
      horiz-adv-x="612" d="M682.5371297753613 781.2345113750179L410.7085419945629 586.2091858634998V736.5010731148948C410.6802117613392 802.4255258262984 374.1342109028473 798.3459722420947 342.234368293032 781.2345113750179L-139.0113034768922 435.9456288453284C-161.1655458577765 413.4230934325369 -161.1655458577765 376.877092574045 -139.0113034768922 354.3545571612534L342.2343682930318 9.0656746315638C371.4711689798254 -9.8589211618258 410.6802117613392 -0.5949348976965 410.7085419945628 55.583917584776V204.1193303763055L682.5371297753611 9.0656746315638C711.7739304621547 -9.8589211618258 750.1047360137356 -1.4731721276293 751.0113034768922 56.4621548147088V734.7445986550293C751.889540706825 798.8842466733438 714.4369723851767 798.3459722420947 682.5371297753613 781.2345113750179zM694.2941765631707 77.8514808985549L353.9914150808413 315.8254399771069C353.9914150808413 315.8254399771069 353.9914150808413 91.1383602804407 353.9914150808413 77.8514808985549L-99.7456002289311 395.1500930032909L353.9914150808413 712.4487051080268C353.9914150808413 661.7942481041637 353.9914150808413 474.4747460294749 353.9914150808413 474.4747460294749L694.2941765631707 712.4487051080268V77.8514808985549z" />
    <glyph glyph-name="settings"
      unicode="&#xE013;"
      horiz-adv-x="612" d="M51.4285714285714 449.7145714285714V763.7142857142857C51.4285714285714 779.328 38.7565714285714 792 23.1428571428571 792S-5.1428571428571 779.328 -5.1428571428571 763.7142857142857V449.7145714285714C-69.6908571428572 436.6182857142857 -118.2857142857143 379.5660000000001 -118.2857142857143 311.1428571428572C-118.2857142857143 242.7197142857143 -69.6908571428572 185.6674285714286 -5.1428571428571 172.5711428571428V28.2857142857143C-5.1428571428571 12.672 7.5291428571429 0 23.1428571428571 0S51.4285714285714 12.672 51.4285714285714 28.2857142857143V172.5711428571428C115.9765714285714 185.6674285714286 164.5714285714286 242.7197142857143 164.5714285714286 311.1428571428572C164.5714285714286 379.5660000000001 115.9765714285714 436.6182857142857 51.4285714285714 449.7145714285714zM23.1428571428571 226.2857142857144C-23.7265714285714 226.2857142857144 -61.7142857142857 264.2734285714286 -61.7142857142857 311.1428571428572C-61.7142857142857 358.0122857142857 -23.7265714285714 396 23.1428571428571 396S108 358.0122857142857 108 311.1428571428572C108 264.2734285714286 70.0122857142857 226.2857142857144 23.1428571428571 226.2857142857144zM334.2857142857144 732.5717142857143V763.7142857142857C334.2857142857144 779.328 321.6137142857143 792 306 792C290.3862857142858 792 277.7142857142857 779.328 277.7142857142857 763.7142857142857V732.5717142857143C213.1662857142857 719.4754285714286 164.5714285714286 662.4231428571429 164.5714285714286 594S213.1662857142857 468.5245714285714 277.7142857142857 455.4282857142857V28.2857142857143C277.7142857142857 12.672 290.3862857142858 0 306 0C321.6137142857143 0 334.2857142857144 12.672 334.2857142857144 28.2857142857143V455.4282857142858C398.8337142857143 468.5245714285714 447.4285714285714 525.5768571428572 447.4285714285714 594S398.8337142857143 719.4754285714286 334.2857142857144 732.5717142857143zM306 509.1428571428572C259.1305714285715 509.1428571428572 221.1428571428572 547.1305714285714 221.1428571428572 594C221.1428571428572 640.8694285714286 259.1305714285715 678.8571428571429 306 678.8571428571429C352.8694285714285 678.8571428571429 390.8571428571429 640.8694285714286 390.8571428571429 594C390.8571428571429 547.1305714285714 352.8694285714285 509.1428571428572 306 509.1428571428572zM617.1428571428571 336.5717142857144V763.7142857142857C617.1428571428571 779.328 604.4708571428571 792 588.8571428571429 792C573.2434285714285 792 560.5714285714287 779.328 560.5714285714287 763.7142857142857V336.5717142857144C496.0234285714286 323.4754285714286 447.4285714285714 266.4231428571429 447.4285714285714 198C447.4285714285714 129.5768571428572 496.0234285714286 72.5245714285715 560.5714285714287 59.4282857142857V28.2857142857143C560.5714285714287 12.672 573.2434285714285 0 588.8571428571429 0C604.4708571428571 0 617.1428571428571 12.672 617.1428571428571 28.2857142857143V59.4282857142857C681.6908571428571 72.5245714285715 730.2857142857142 129.5768571428572 730.2857142857142 198C730.2857142857142 266.4231428571429 681.6908571428571 323.4754285714286 617.1428571428571 336.5717142857144zM588.8571428571429 113.1428571428571C541.9877142857142 113.1428571428571 503.9999999999999 151.1305714285715 503.9999999999999 198C503.9999999999999 244.8694285714286 541.9877142857142 282.8571428571429 588.8571428571429 282.8571428571429C635.7265714285713 282.8571428571429 673.7142857142858 244.8694285714286 673.7142857142858 198C673.7142857142858 151.1305714285715 635.7265714285713 113.1428571428571 588.8571428571429 113.1428571428571z" />
    <glyph glyph-name="share"
      unicode="&#xE014;"
      horiz-adv-x="612" d="M519.2307692307692 304.6153846153847C465.3138461538462 304.6153846153847 418.2203076923077 276.4384615384615 391.1704615384615 234.1883076923077L228.0793846153847 327.4006153846154C238.5886153846154 348.1144615384617 245.0769230769231 371.1738461538463 245.0769230769231 396C245.0769230769231 411.3221538461539 242.1221538461539 425.8218461538462 237.9184615384616 439.7732307692308L407.6196923076923 536.7323076923077C435.4310769230769 506.5753846153847 474.9701538461538 487.3846153846154 519.2307692307692 487.3846153846154C603.3350769230768 487.3846153846154 671.5384615384615 555.588 671.5384615384615 639.6923076923077C671.5384615384615 723.7966153846154 603.3350769230768 792 519.2307692307692 792C435.1264615384616 792 366.923076923077 723.7966153846154 366.923076923077 639.6923076923077C366.923076923077 624.3701538461538 369.8778461538462 609.8704615384615 374.0815384615385 595.9190769230769L204.3803076923077 498.9295384615385C176.5689230769231 529.1169230769231 137.0298461538462 548.3076923076924 92.7692307692308 548.3076923076924C8.6649230769231 548.3076923076924 -59.5384615384615 480.1347692307693 -59.5384615384615 396C-59.5384615384615 311.8956923076924 8.6649230769231 243.6923076923078 92.7692307692308 243.6923076923078C127.4953846153846 243.6923076923078 159.1144615384616 255.755076923077 184.7326153846154 275.3418461538462L184.1538461538462 274.1538461538462L368.5680000000001 168.7569230769231C367.9892307692308 163.2738461538462 366.923076923077 157.9430769230769 366.923076923077 152.3076923076924C366.923076923077 68.2033846153847 435.1264615384616 0 519.2307692307692 0C603.3350769230768 0 671.5384615384615 68.2033846153847 671.5384615384615 152.3076923076924C671.5384615384615 236.4120000000001 603.3350769230768 304.6153846153847 519.2307692307692 304.6153846153847zM519.2307692307692 731.0769230769231C569.7055384615384 731.0769230769231 610.6153846153845 690.1670769230769 610.6153846153845 639.6923076923077C610.6153846153845 589.2175384615384 569.7055384615384 548.3076923076924 519.2307692307692 548.3076923076924C468.756 548.3076923076924 427.8461538461539 589.2175384615384 427.8461538461539 639.6923076923077C427.8461538461539 690.1670769230769 468.756 731.0769230769231 519.2307692307692 731.0769230769231zM92.7692307692308 304.6153846153847C42.2944615384616 304.6153846153847 1.3846153846154 345.5252307692308 1.3846153846154 396C1.3846153846154 446.4747692307693 42.2944615384616 487.3846153846154 92.7692307692308 487.3846153846154C143.244 487.3846153846154 184.1538461538462 446.4747692307693 184.1538461538462 396C184.1538461538462 345.5252307692308 143.244 304.6153846153847 92.7692307692308 304.6153846153847zM519.2307692307692 60.9230769230769C468.756 60.9230769230769 427.8461538461539 101.8329230769231 427.8461538461539 152.3076923076924S468.756 243.6923076923078 519.2307692307692 243.6923076923078C569.7055384615384 243.6923076923078 610.6153846153845 202.7824615384616 610.6153846153845 152.3076923076924S569.7055384615384 60.9230769230769 519.2307692307692 60.9230769230769z" />
    <glyph glyph-name="speaker-mute"
      unicode="&#xE015;"
      horiz-adv-x="612" d="M277.7685 792L-19.2315 594H-118.2315C-154.6965 594 -184.2315 564.465 -184.2315 528V264C-184.2315 227.535 -154.6965 198 -118.2315 198H-19.2315L277.7685 0C314.2335 0 343.7685 29.568 343.7685 66V726C343.7685 762.432 314.2335 792 277.7685 792zM-19.2315 297C-19.2315 278.784 -34.0155 264 -52.2315 264H-85.2315C-103.4475 264 -118.2315 278.784 -118.2315 297V495C-118.2315 513.216 -103.4475 528 -85.2315 528H-52.2315C-34.0155 528 -19.2315 513.216 -19.2315 495V297zM277.7685 66L46.7685 210.375V581.625L277.7685 726V66zM655.4205 396L793.1294999999998 533.7090000000001C808.0125 548.592 809.3655 571.296 796.2315 584.463C783.0645000000001 597.63 760.3605 596.244 745.4775 581.361L607.7685 443.6520000000001L470.0595 581.361C455.1764999999999 596.244 432.4725 597.6300000000001 419.3055 584.4630000000001C406.1384999999999 571.296 407.5245 548.5920000000001 422.4075000000001 533.7090000000001L560.1165000000001 396L422.4075000000002 258.291C407.5245000000001 243.4079999999999 406.1385000000002 220.704 419.3055000000001 207.5369999999999C432.4725000000001 194.3699999999999 455.1765 195.756 470.0595000000001 210.639L607.7685 348.348L745.4775 210.639C760.3605 195.789 783.0645000000001 194.4029999999999 796.2315 207.5369999999999C809.3985000000002 220.704 808.0125 243.4409999999999 793.1295 258.291L655.4205 396z" />
    <glyph glyph-name="speaker-off"
      unicode="&#xE016;"
      horiz-adv-x="612" d="M504 792L207 594H108C71.535 594 42 564.465 42 528V264C42 227.535 71.535 198 108 198H207L504 0C540.4649999999999 0 570 29.568 570 66V726C570 762.432 540.4649999999999 792 504 792zM207 297C207 278.784 192.216 264 174 264H141C122.784 264 108 278.784 108 297V495C108 513.216 122.784 528 141 528H174C192.216 528 207 513.216 207 495V297zM504 66L273 210.375V581.625L504 726V66z" />
    <glyph glyph-name="speaker-on"
      unicode="&#xE017;"
      horiz-adv-x="612" d="M574.983268983269 396C574.983268983269 495.7503217503217 501.027027027027 577.4929214929215 405.0990990990992 591.3384813384813V534.7104247104247C469.7117117117117 521.6010296010297 518.3552123552123 464.4916344916345 518.3552123552123 396C518.3552123552123 327.5083655083655 469.7117117117117 270.3989703989704 405.0990990990992 257.2895752895753V200.6615186615186C501.0270270270271 214.5070785070785 574.983268983269 296.2496782496783 574.983268983269 396zM263.5289575289576 735.7683397683397L8.7027027027027 565.8841698841699H-76.2393822393823C-107.5263835263836 565.8841698841699 -132.8674388674389 540.5431145431146 -132.8674388674389 509.2561132561132V282.7438867438867C-132.8674388674389 251.4568854568854 -107.5263835263836 226.1158301158302 -76.2393822393823 226.1158301158302H8.7027027027027L263.5289575289576 56.2316602316603C294.8159588159588 56.2316602316603 320.1570141570142 81.6010296010296 320.1570141570142 112.8597168597169V679.1402831402831C320.1570141570142 710.4272844272845 294.8159588159588 735.7683397683397 263.5289575289576 735.7683397683397zM8.7027027027027 311.0579150579151C8.7027027027027 295.4285714285715 -3.981981981982 282.7438867438867 -19.6113256113256 282.7438867438867H-47.925353925354C-63.5546975546976 282.7438867438867 -76.2393822393823 295.4285714285715 -76.2393822393823 311.0579150579151V480.9420849420849C-76.2393822393823 496.5714285714286 -63.5546975546976 509.2561132561132 -47.925353925354 509.2561132561132H-19.6113256113256C-3.981981981982 509.2561132561132 8.7027027027027 496.5714285714286 8.7027027027027 480.9420849420849V311.0579150579151zM263.5289575289576 112.8597168597169L65.3307593307594 236.7335907335908V555.2664092664093L263.5289575289576 679.1402831402831V112.8597168597169zM405.0990990990992 792V733.8429858429859C571.3590733590734 701.8198198198198 688.2393822393822 566.2239382239383 688.2393822393822 396.0283140283142C688.2393822393822 226.7670527670528 574.983268983269 95.6447876447876 405.0990990990992 58.2136422136423V0.0566280566283C596.9549549549549 28.1158301158303 744.8674388674389 193.809523809524 744.8674388674389 396.0566280566282C744.8674388674389 598.2471042471043 596.9549549549549 763.9407979407979 405.0990990990992 792z" />
    <glyph glyph-name="stop"
      unicode="&#xE018;"
      horiz-adv-x="612" d="M645.4285714285714 792H-33.4285714285714C-64.656 792 -90 766.656 -90 735.4285714285714V56.5714285714286C-90 25.3440000000001 -64.656 0 -33.4285714285714 0H645.4285714285714C676.6842857142857 0 702 25.3157142857143 702 56.5714285714286V735.4285714285714C702 766.656 676.6842857142857 792 645.4285714285714 792zM645.4285714285714 84.8571428571429C645.4285714285714 69.2434285714286 632.7565714285714 56.5714285714286 617.1428571428571 56.5714285714286H-5.1428571428571C-20.7565714285714 56.5714285714286 -33.4285714285714 69.2434285714286 -33.4285714285714 84.8571428571429V707.1428571428571C-33.4285714285714 722.7565714285714 -20.7565714285714 735.4285714285714 -5.1428571428571 735.4285714285714H617.1428571428571C632.7565714285714 735.4285714285714 645.4285714285714 722.7565714285714 645.4285714285714 707.1428571428571V84.8571428571429z" />
    <glyph glyph-name="television"
      unicode="&#xE019;"
      horiz-adv-x="612" d="M578.3436181187283 148.5510644283973H479.3095751664635C465.642877239051 148.5510644283973 454.5510644283973 137.4592516177436 454.5510644283973 123.792553690331C454.5510644283973 110.1258557629185 465.642877239051 99.0340429522648 479.3095751664635 99.0340429522648H578.3436181187283C592.0103160461408 99.0340429522648 603.1021288567945 110.1258557629185 603.1021288567945 123.792553690331C603.1021288567945 137.4592516177436 592.0103160461408 148.5510644283973 578.3436181187283 148.5510644283973zM355.5170214761324 495.1702147613242H58.4148926193379C31.0567382537747 495.1702147613242 8.8978711432054 472.9865891400169 8.8978711432054 445.6531932851918V148.5510644283973C8.8978711432054 121.2176685735722 31.0567382537747 99.0340429522648 58.4148926193379 99.0340429522648H355.5170214761324C382.8751758416955 99.0340429522648 405.0340429522649 121.192910062834 405.0340429522649 148.5510644283973V445.6531932851918C405.0340429522649 472.9865891400169 382.8751758416955 495.1702147613242 355.5170214761324 495.1702147613242zM355.5170214761324 173.3095751664635C355.5170214761324 159.6428772390509 344.4252086654788 148.5510644283973 330.7585107380663 148.5510644283973H83.1734033574041C69.5067054299915 148.5510644283973 58.4148926193379 159.6428772390509 58.4148926193379 173.3095751664635V420.8946825471257C58.4148926193379 434.5613804745381 69.5067054299915 445.6531932851918 83.1734033574041 445.6531932851918H330.7585107380663C344.4252086654788 445.6531932851918 355.5170214761324 434.5613804745381 355.5170214761324 420.8946825471257V173.3095751664635zM578.3436181187283 222.8265966425959H479.3095751664635C465.642877239051 222.8265966425959 454.5510644283973 211.7347838319422 454.5510644283973 198.0680859045297C454.5510644283973 184.4013879771171 465.642877239051 173.3095751664635 479.3095751664635 173.3095751664635H578.3436181187283C592.0103160461408 173.3095751664635 603.1021288567945 184.4013879771171 603.1021288567945 198.0680859045297C603.1021288567945 211.7347838319422 592.0103160461408 222.8265966425959 578.3436181187283 222.8265966425959zM603.1021288567945 594.2042577135891H373.9868704867299L591.1685266810466 743.6218700178187C602.6564756635094 751.5198349432618 605.9245990809341 767.8109350089093 598.4970458595142 779.992122292038C591.0694926380943 792.1733095751665 575.7439744912313 795.6642595892338 564.2560255087687 787.7662946637906C564.2560255087687 787.7662946637906 326.3267373159524 623.4935759167214 306.2228265966426 611.361905655069L47.7439744912313 787.7662946637906C36.2807840195067 795.6642595892338 20.9552658726437 792.1733095751665 13.5277126512238 779.9921222920378C6.100159429804 767.8109350089093 9.3682828472287 751.5198349432618 20.8562318296914 743.6218700178187L238.0378880240084 594.204257713589H8.8978711432054C-45.7936790771828 594.204257713589 -90.1361718090594 549.8617649817124 -90.1361718090594 495.1702147613242V99.0340429522648C-90.1361718090594 44.3424927318766 -45.7936790771828 0 8.8978711432054 0H603.1021288567945C657.7936790771828 0 702.1361718090593 44.3424927318766 702.1361718090593 99.0340429522648V495.1702147613242C702.1361718090593 549.8617649817124 657.7936790771828 594.2042577135891 603.1021288567945 594.2042577135891zM652.6191503329269 99.0340429522648C652.6191503329269 71.6758885867016 630.4602832223577 49.5170214761324 603.1021288567945 49.5170214761324H8.8978711432054C-18.4602832223577 49.5170214761324 -40.619150332927 71.6758885867016 -40.619150332927 99.0340429522648V495.1702147613242C-40.619150332927 522.5036106161492 -18.4602832223577 544.6872362374565 8.8978711432054 544.6872362374565H603.1021288567945C630.4602832223577 544.6872362374565 652.6191503329269 522.5036106161492 652.6191503329269 495.1702147613242V99.0340429522648zM528.8265966425959 495.1702147613242C487.8017443496202 495.1702147613242 454.5510644283973 461.9195348401013 454.5510644283973 420.8946825471257C454.5510644283973 379.8698302541499 487.8017443496202 346.619150332927 528.8265966425959 346.619150332927C569.8514489355716 346.619150332927 603.1021288567945 379.8698302541499 603.1021288567945 420.8946825471257C603.1021288567945 461.9195348401013 569.8514489355716 495.1702147613242 528.8265966425959 495.1702147613242zM553.5851073806621 396.1361718090594H504.0680859045297V445.6531932851918H553.5851073806621V396.1361718090594z" />
    <glyph glyph-name="zoom-minus"
      unicode="&#xE01A;"
      horiz-adv-x="612" d="M671.4074562676446 44.2240574127331L444.3734466109074 280.3306509063086C500.5816733067729 334.4875333104668 535.6530434553179 410.4325479538799 535.6530434553179 494.4680087596633C535.6530434553179 658.5302762460094 402.1798369436163 792 238.1245349726921 792C74.0622674863461 792 -59.4074562676446 658.5302762460094 -59.4074562676446 494.4680087596633C-59.4074562676446 330.4092240310282 74.0622674863461 196.9360175193266 238.1245349726921 196.9360175193266C299.330518983668 196.9360175193266 356.2666420411072 215.5304609377061 403.618215878209 247.3419698688689L633.7518798976281 8.013825492731C638.8819820057519 2.6817234373763 645.7290836653386 -0.0034827577109 652.5831508403473 -0.0034827577109C659.0959077596898 -0.0034827577109 665.6191129521649 2.4170338513495 670.6830426637821 7.2894118888684C681.0825571884648 17.291892034511 681.4064536555763 33.8280256457613 671.4074562676446 44.2240574127331zM-7.1660906044695 494.4680087596633C-7.1660906044695 629.7209044616237 102.8716392707317 739.7586343368249 238.1245349726921 739.7586343368249C373.3774306746525 739.7586343368249 483.4116777921428 629.7209044616237 483.4116777921428 494.4680087596633S373.3774306746525 249.1773831825018 238.1245349726921 249.1773831825018C102.8716392707317 249.1808659402126 -7.1660906044695 359.215113057703 -7.1660906044695 494.4680087596633zM371.329569140656 520.5886915912508H104.9160180470173C90.4869528508483 520.5886915912508 78.7953352154298 508.8970739558323 78.7953352154298 494.4680087596633S90.4869528508483 468.3473259280757 104.9160180470173 468.3473259280757H371.329569140656C385.7586343368249 468.3473259280757 397.4502519722435 480.0389435634943 397.4502519722435 494.4680087596633S385.7586343368249 520.5886915912508 371.329569140656 520.5886915912508z" />
    <glyph glyph-name="zoom-plus"
      unicode="&#xE01B;"
      horiz-adv-x="612" d="M671.4091976465002 44.2240574127331L444.3751879897628 280.3341336640195C500.5834146856283 334.4910160681777 535.6547848341733 410.4325479538799 535.6547848341733 494.4680087596634C535.6547848341733 658.5267934882986 402.1850610801825 792.0000000000001 238.1227935938365 792.0000000000001C74.0605261074906 792 -59.4091976465001 658.5302762460094 -59.4091976465001 494.4680087596633C-59.4091976465001 330.4092240310282 74.0605261074906 196.9360175193266 238.1227935938367 196.9360175193266C299.3287776048126 196.9360175193266 356.2718661776735 215.5304609377061 403.6234400147754 247.3454526265797L633.7536212764836 8.013825492731C638.8837233846074 2.6817234373763 645.7308250441941 -0.0034827577109 652.5848922192027 -0.0034827577109C659.0976491385453 -0.0034827577109 665.6208543310204 2.4170338513495 670.6847840426375 7.2894118888684C681.0842985673203 17.291892034511 681.4081950344319 33.8280256457613 671.4091976465002 44.2240574127331zM-7.167831983325 494.4680087596633C-7.167831983325 629.7209044616237 102.8698978918762 739.7586343368249 238.1227935938367 739.7586343368249C373.375689295797 739.7586343368249 483.4134191709981 629.7209044616237 483.4134191709981 494.4680087596633S373.375689295797 249.1773831825018 238.1227935938367 249.1773831825018C102.8698978918762 249.1808659402126 -7.167831983325 359.215113057703 -7.167831983325 494.4680087596633zM371.3313105195113 520.5886915912508H264.2434764254241V627.6765256853381C264.2434764254241 642.105590881507 252.5518587900055 653.7972085169257 238.1227935938366 653.7972085169257C223.6937283976676 653.7972085169257 212.002110762249 642.105590881507 212.002110762249 627.6765256853381V520.5886915912508H104.9107939104509C90.481728714282 520.5886915912508 78.7901110788634 508.8970739558323 78.7901110788634 494.4680087596633S90.481728714282 468.3473259280757 104.9107939104509 468.3473259280757H211.9986280045382V361.2560090762777C211.9986280045382 346.8269438801087 223.6902456399567 335.1353262446901 238.1193108361257 335.1353262446901C252.5483760322947 335.1353262446901 264.2399936677133 346.8269438801087 264.2399936677133 361.2560090762777V468.3473259280757H371.3278277618005C385.7568929579694 468.3473259280757 397.448510593388 480.0389435634943 397.448510593388 494.4680087596633S385.7568929579694 520.5886915912508 371.3313105195113 520.5886915912508z" />
  </font>
</defs>
</svg>
